<?xml version="1.0" standalone="no"?>
<!DOCTYPE svg PUBLIC "-//W3C//DTD SVG 20010904//EN"
 "http://www.w3.org/TR/2001/REC-SVG-20010904/DTD/svg10.dtd">
<svg version="1.0" xmlns="http://www.w3.org/2000/svg"
 width="765.000000pt" height="408.000000pt" viewBox="0 0 765.000000 408.000000"
 preserveAspectRatio="xMidYMid meet">

<g transform="translate(0.000000,408.000000) scale(0.100000,-0.100000)"
fill="#000000" stroke="none">
<path d="M3470 3895 l0 -115 -274 0 c-273 0 -274 0 -269 21 l6 21 -42 -21 -41
-21 0 40 c0 30 -7 47 -25 65 l-24 25 -541 0 -541 0 -24 -25 c-25 -24 -25 -25
-25 -230 0 -205 0 -206 25 -230 l24 -25 271 0 270 0 0 -200 0 -200 1005 0
1005 0 0 -109 c0 -106 -1 -109 -21 -104 l-21 6 21 -42 21 -41 -268 0 -269 0
-24 -26 c-24 -25 -24 -28 -24 -229 0 -201 0 -204 24 -229 l24 -26 542 0 542 0
24 26 c22 24 24 34 27 150 l4 124 40 -21 41 -21 -6 21 -5 22 640 -3 640 -3 19
-24 c10 -13 19 -38 19 -56 0 -29 -3 -32 -21 -28 l-21 6 21 -42 21 -41 -270 0
-271 0 -24 -25 c-25 -24 -25 -25 -25 -230 0 -205 0 -206 25 -230 l24 -25 271
0 270 0 -21 -41 -21 -42 22 6 21 5 -3 -309 c-3 -306 -3 -309 -26 -331 -22 -22
-30 -23 -227 -26 l-204 -3 6 21 6 22 -42 -21 -41 -21 0 100 c0 94 -2 103 -25
125 l-24 25 -541 0 -541 0 -24 -25 c-23 -22 -25 -31 -25 -125 l0 -100 -41 21
-42 21 6 -21 c5 -21 4 -21 -223 -21 -227 0 -228 0 -223 21 l6 21 -42 -21 -41
-21 0 100 c0 94 -2 103 -25 125 l-24 25 -541 0 -541 0 -24 -25 c-23 -22 -25
-31 -25 -125 l0 -100 -41 21 -42 21 6 -21 c5 -21 4 -21 -233 -21 -237 0 -238
0 -233 21 l6 21 -42 -21 -41 -21 0 100 c0 94 -2 103 -25 125 l-24 25 -416 0
-415 0 21 41 21 42 -22 -6 -22 -6 4 242 c3 214 5 246 22 281 11 21 89 108 175
194 86 86 143 145 126 132 -62 -50 -278 -267 -303 -305 l-27 -40 -3 -251 c-3
-247 -4 -252 -24 -246 -20 5 -20 5 1 -37 l21 -41 -120 0 c-115 0 -122 -1 -145
-25 -23 -22 -25 -31 -25 -125 l0 -100 -41 21 -42 21 6 -21 5 -21 -414 0 -414
0 0 -430 0 -430 100 0 100 0 0 -75 c0 -67 3 -79 25 -100 l24 -25 541 0 541 0
24 25 c25 24 25 25 25 230 0 205 0 206 -25 230 l-24 25 -266 0 -265 0 21 41
21 42 -21 -6 c-12 -3 -21 -1 -21 4 0 5 312 9 760 9 448 0 760 -4 760 -9 0 -5
-9 -7 -21 -4 l-21 6 21 -42 21 -41 -270 0 -271 0 -24 -25 c-25 -24 -25 -25
-25 -230 0 -205 0 -206 25 -230 l24 -25 541 0 541 0 24 25 c24 23 25 30 25
150 l0 125 250 0 250 0 0 205 0 205 -540 0 -540 0 0 110 0 110 -89 0 c-86 0
-89 1 -84 21 l6 21 -42 -21 -41 -21 0 60 0 60 41 -21 42 -21 -6 21 c-5 21 -4
21 233 21 237 0 238 0 233 -21 l-6 -21 42 21 41 21 0 -100 c0 -94 2 -103 25
-125 l24 -25 541 0 541 0 24 25 c23 22 25 31 25 125 l0 100 41 -21 42 -21 -6
21 c-5 21 -4 21 223 21 227 0 228 0 223 -21 l-6 -21 42 21 41 21 0 -100 c0
-94 2 -103 25 -125 l24 -25 271 0 270 0 0 -200 0 -200 970 0 970 0 0 64 c0 60
1 64 21 59 l21 -6 -21 42 c-12 22 -23 41 -26 41 -3 0 -14 -19 -26 -41 l-21
-42 21 6 c20 5 21 1 21 -54 l0 -59 -960 0 -960 0 0 195 0 195 265 0 266 0 24
25 c23 22 25 31 25 125 l0 100 41 -21 42 -21 -6 21 c-5 21 -3 21 200 21 l205
0 29 29 29 29 0 310 c0 310 0 310 21 305 l21 -6 -21 42 -21 41 140 0 140 0 0
-165 0 -165 105 0 105 0 0 -119 c0 -116 -1 -119 -21 -114 l-21 6 21 -42 21
-41 -120 0 c-115 0 -122 -1 -145 -25 -25 -24 -25 -25 -25 -230 0 -205 0 -206
25 -230 l24 -25 541 0 541 0 24 25 c25 24 25 25 25 230 0 205 0 206 -25 230
l-24 25 -266 0 -265 0 21 41 21 42 -21 -6 -21 -5 0 839 0 839 -1250 0 -1250 0
0 -100 0 -100 -145 0 -145 0 21 41 21 42 -21 -6 c-20 -5 -21 -2 -21 109 l0
114 -1005 0 -1005 0 0 195 0 195 265 0 266 0 24 25 c23 22 25 31 25 125 l0
100 305 0 305 0 0 -125 0 -125 269 0 c268 0 269 0 264 -21 l-6 -21 42 21 41
21 0 -100 c0 -94 2 -103 25 -125 l24 -25 556 0 556 0 24 25 c25 24 25 25 25
230 0 205 0 206 -25 230 l-24 25 -276 0 -275 0 0 175 0 175 -605 0 -605 0 0
-115z m1200 -65 l0 -170 -275 0 -276 0 -24 -25 c-23 -22 -25 -31 -25 -125 l0
-100 -41 21 -42 21 6 -21 c5 -21 4 -21 -259 -21 l-264 0 0 125 0 125 -310 0
-310 0 0 55 0 55 41 -21 42 -21 -6 21 c-5 21 -4 21 274 21 l279 0 0 115 0 115
595 0 595 0 0 -170z m-1853 47 c16 -16 18 -39 18 -222 0 -183 -2 -206 -18
-222 -17 -17 -53 -18 -557 -18 -504 0 -540 1 -557 18 -16 15 -18 41 -21 205
-3 200 2 236 40 252 13 5 246 8 550 7 491 -2 529 -3 545 -20z m2430 -250 c16
-16 18 -39 18 -222 0 -183 -2 -206 -18 -222 -17 -17 -53 -18 -572 -18 -518 0
-555 1 -572 18 -16 15 -18 41 -21 205 -3 200 2 236 40 252 13 5 252 8 565 7
506 -2 544 -3 560 -20z m1813 -1561 l0 -834 -21 5 -21 6 21 -42 21 -41 -145 0
-145 0 21 41 21 42 -21 -6 c-20 -5 -21 -2 -21 119 l0 124 -105 0 -105 0 0 160
0 160 120 0 c115 0 122 1 145 25 25 24 25 25 25 230 0 205 0 206 -25 230 l-24
25 -266 0 -265 0 21 41 21 42 -21 -6 c-19 -5 -21 -1 -21 38 0 35 -5 48 -26 64
-26 21 -34 21 -664 21 l-638 0 5 21 6 21 -41 -21 -40 -20 -4 74 c-3 61 -7 78
-27 99 -24 25 -29 26 -143 26 l-118 0 0 95 0 95 1240 0 1240 0 0 -834z m-2247
623 c12 -7 25 -17 29 -23 10 -14 10 -408 0 -422 -21 -32 -52 -34 -567 -34
-515 0 -546 2 -567 34 -4 6 -8 101 -8 211 0 110 4 205 8 211 21 32 49 33 565
34 372 0 524 -3 540 -11z m2004 -412 c16 -16 18 -39 18 -222 0 -183 -2 -206
-18 -222 -17 -17 -53 -18 -557 -18 -504 0 -540 1 -557 18 -16 15 -18 41 -21
205 -3 200 2 236 40 252 13 5 246 8 550 7 491 -2 529 -3 545 -20z m-4700
-1000 c16 -16 18 -39 18 -222 0 -183 -2 -206 -18 -222 -17 -17 -53 -18 -557
-18 -504 0 -540 1 -557 18 -16 15 -18 41 -21 205 -3 200 2 236 40 252 13 5
246 8 550 7 491 -2 529 -3 545 -20z m1800 0 c16 -16 18 -39 18 -222 0 -183 -2
-206 -18 -222 -17 -17 -53 -18 -557 -18 -504 0 -540 1 -557 18 -16 15 -18 41
-21 205 -3 200 2 236 40 252 13 5 246 8 550 7 491 -2 529 -3 545 -20z m1780 0
c16 -16 18 -39 18 -222 0 -183 -2 -206 -18 -222 -17 -17 -53 -18 -557 -18
-504 0 -540 1 -557 18 -16 15 -18 41 -21 205 -3 200 2 236 40 252 13 5 246 8
550 7 491 -2 529 -3 545 -20z m1920 -150 c16 -16 18 -39 18 -222 0 -183 -2
-206 -18 -222 -17 -17 -53 -18 -557 -18 -504 0 -540 1 -557 18 -16 15 -18 41
-21 205 -3 200 2 236 40 252 13 5 246 8 550 7 491 -2 529 -3 545 -20z m-6724
-98 l-6 -21 42 21 41 21 0 -100 c0 -94 2 -103 25 -125 l24 -25 271 0 270 0 0
-95 0 -95 -350 0 c-294 0 -350 -2 -350 -14 0 -9 -7 -12 -21 -9 l-21 6 21 -42
21 -41 -270 0 -271 0 -24 -25 c-24 -23 -25 -30 -25 -150 l0 -125 -95 0 -95 0
0 420 0 420 409 0 409 0 -5 -21z m1334 -130 c-5 20 -1 21 79 21 l84 0 0 -110
0 -110 540 0 540 0 0 -195 0 -195 -245 0 -245 0 0 75 c0 67 -3 79 -25 100
l-24 25 -266 0 -265 0 21 41 21 42 -21 -6 c-14 -3 -21 0 -21 9 0 12 -65 14
-415 14 l-415 0 0 95 0 95 265 0 266 0 24 25 c17 16 25 35 25 60 l0 35 41 -21
42 -21 -6 21z m-810 -422 c16 -16 18 -39 18 -222 0 -183 -2 -206 -18 -222 -17
-17 -53 -18 -557 -18 -504 0 -540 1 -557 18 -16 15 -18 41 -21 205 -3 200 2
236 40 252 13 5 246 8 550 7 491 -2 529 -3 545 -20z m1530 0 c16 -16 18 -39
18 -222 0 -183 -2 -206 -18 -222 -17 -17 -53 -18 -557 -18 -504 0 -540 1 -557
18 -16 15 -18 41 -21 205 -3 200 2 236 40 252 13 5 246 8 550 7 491 -2 529 -3
545 -20z"/>
<path d="M1928 3686 c-40 -30 -1 -89 42 -66 26 14 26 56 1 70 -24 12 -22 12
-43 -4z m12 -33 c0 -20 -3 -24 -11 -16 -7 7 -9 19 -6 27 10 24 17 19 17 -11z
m40 2 c0 -8 -4 -17 -10 -20 -6 -4 -10 5 -10 20 0 15 4 24 10 20 6 -3 10 -12
10 -20z"/>
<path d="M2004 3666 c-10 -26 1 -51 22 -54 24 -3 38 20 29 49 -7 22 -43 25
-51 5z m36 -21 c0 -14 -4 -25 -10 -25 -5 0 -10 11 -10 25 0 14 5 25 10 25 6 0
10 -11 10 -25z"/>
<path d="M2071 3633 c0 -27 3 -42 6 -35 2 6 10 12 18 12 20 0 37 27 30 50 -4
13 -15 20 -31 20 -22 0 -24 -4 -23 -47z m39 12 c0 -14 -4 -25 -9 -25 -12 0
-19 21 -13 38 8 21 22 13 22 -13z"/>
<path d="M2141 3643 c0 -31 2 -34 9 -18 7 17 9 17 9 3 1 -17 21 -26 21 -10 0
15 -25 62 -32 62 -5 0 -8 -17 -7 -37z"/>
<path d="M2185 3670 c-8 -12 5 -60 16 -60 5 0 9 16 9 35 0 33 -12 46 -25 25z"/>
<path d="M2224 3669 c-4 -8 0 -9 15 -4 11 3 21 2 21 -3 0 -5 -9 -12 -20 -15
-29 -8 -26 -37 5 -37 22 0 25 4 25 35 0 28 -4 35 -19 35 -11 0 -23 -5 -27 -11z
m31 -39 c-3 -5 -10 -10 -16 -10 -5 0 -9 5 -9 10 0 6 7 10 16 10 8 0 12 -4 9
-10z"/>
<path d="M2320 3646 c0 -32 3 -36 25 -36 22 0 24 4 22 33 -2 24 -8 33 -25 35
-19 3 -22 -1 -22 -32z m40 14 c0 -5 -7 -10 -15 -10 -8 0 -15 5 -15 10 0 6 7
10 15 10 8 0 15 -4 15 -10z m0 -30 c0 -5 -7 -10 -15 -10 -8 0 -15 5 -15 10 0
6 7 10 15 10 8 0 15 -4 15 -10z"/>
<path d="M2389 3663 c7 -14 8 -24 1 -28 -5 -3 -10 -11 -10 -18 0 -8 3 -8 12 1
9 9 15 9 26 -1 13 -10 14 -9 4 8 -7 15 -7 26 1 40 9 17 8 18 -4 8 -12 -10 -18
-10 -28 0 -11 10 -11 8 -2 -10z"/>
<path d="M2444 3666 c-10 -26 1 -51 22 -54 24 -3 38 20 29 49 -7 22 -43 25
-51 5z m36 -21 c0 -14 -4 -25 -10 -25 -5 0 -10 11 -10 25 0 14 5 25 10 25 6 0
10 -11 10 -25z"/>
<path d="M2510 3658 c0 -13 -3 -34 -5 -48 -3 -14 -3 -19 1 -12 3 6 14 12 24
12 10 0 20 -6 23 -12 9 -26 16 -1 10 40 -5 36 -9 42 -29 42 -18 0 -24 -6 -24
-22z m40 -13 c0 -16 -6 -25 -15 -25 -15 0 -21 31 -8 43 13 14 23 6 23 -18z"/>
<path d="M2580 3671 c0 -6 7 -8 15 -5 8 4 15 2 15 -4 0 -5 -9 -12 -21 -15 -29
-8 -19 -31 15 -35 26 -3 27 -1 24 30 -2 25 -8 34 -25 36 -13 2 -23 -1 -23 -7z
m30 -41 c0 -5 -4 -10 -10 -10 -5 0 -10 5 -10 10 0 6 5 10 10 10 6 0 10 -4 10
-10z"/>
<path d="M4489 3501 c-25 -20 -21 -44 10 -61 29 -15 66 21 52 49 -15 28 -37
32 -62 12z m21 -26 c0 -14 -4 -25 -9 -25 -12 0 -19 21 -13 38 8 21 22 13 22
-13z m30 0 c0 -8 -4 -17 -10 -20 -6 -4 -10 5 -10 20 0 15 4 24 10 20 6 -3 10
-12 10 -20z"/>
<path d="M4574 3486 c-10 -26 0 -51 21 -51 16 0 20 7 20 30 0 33 -30 49 -41
21z m32 -32 c-5 -13 -10 -14 -18 -6 -6 6 -8 18 -4 28 5 13 10 14 18 6 6 -6 8
-18 4 -28z"/>
<path d="M4630 3455 c0 -25 5 -45 10 -45 6 0 10 5 10 10 0 6 6 10 14 10 17 0
28 27 21 51 -4 12 -16 19 -31 19 -22 0 -24 -4 -24 -45z m40 10 c0 -14 -4 -25
-10 -25 -5 0 -10 11 -10 25 0 14 5 25 10 25 6 0 10 -11 10 -25z"/>
<path d="M4701 3463 c1 -21 3 -30 6 -20 5 18 5 18 18 0 13 -17 14 -17 21 1 7
19 8 19 15 0 6 -14 8 -9 8 19 1 41 -14 50 -25 15 l-7 -23 -10 23 c-15 33 -27
27 -26 -15z"/>
<path d="M4784 3489 c-4 -8 0 -9 15 -4 11 3 21 2 21 -3 0 -5 -9 -12 -21 -15
-28 -7 -19 -31 12 -35 23 -3 25 0 21 33 -3 26 -9 35 -23 35 -10 0 -21 -5 -25
-11z m36 -39 c0 -5 -4 -10 -10 -10 -5 0 -10 5 -10 10 0 6 5 10 10 10 6 0 10
-4 10 -10z"/>
<path d="M4320 3313 c0 -26 4 -43 8 -37 4 6 15 13 25 17 27 10 19 61 -10 65
-21 3 -23 -1 -23 -45z m37 3 c-4 -9 -11 -16 -17 -16 -11 0 -14 33 -3 44 11 10
26 -11 20 -28z"/>
<path d="M4384 3346 c-15 -39 23 -74 50 -46 8 9 6 11 -11 6 -12 -4 -24 -2 -28
4 -4 6 5 10 20 10 21 0 26 4 21 16 -3 9 -6 18 -6 20 0 11 -41 2 -46 -10z m36
-6 c0 -5 -4 -10 -10 -10 -5 0 -10 5 -10 10 0 6 5 10 10 10 6 0 10 -4 10 -10z"/>
<path d="M4451 3323 c2 -35 2 -35 6 -8 3 16 10 33 16 37 8 5 6 8 -5 8 -14 0
-18 -8 -17 -37z"/>
<path d="M4491 3328 c-1 -39 12 -51 23 -22 8 22 8 26 -3 19 -5 -3 -12 5 -14
17 -3 15 -5 9 -6 -14z"/>
<path d="M4526 3352 c-3 -5 -1 -22 4 -38 8 -29 8 -29 9 9 1 36 -3 45 -13 29z"/>
<path d="M4565 3352 c-3 -3 -5 -16 -5 -29 0 -26 25 -42 42 -25 7 7 4 10 -8 9
-13 -1 -19 5 -19 18 0 14 7 20 28 22 24 2 27 -2 27 -28 0 -16 5 -29 10 -29 6
0 10 13 10 29 0 16 6 32 13 34 6 3 -11 5 -40 5 -29 0 -55 -3 -58 -6z"/>
<path d="M4680 3313 c0 -26 4 -43 8 -37 4 6 15 13 25 17 27 10 19 61 -10 65
-21 3 -23 -1 -23 -45z m37 3 c-4 -9 -11 -16 -17 -16 -11 0 -14 33 -3 44 11 10
26 -11 20 -28z"/>
<path d="M4744 3349 c-4 -8 0 -9 15 -4 11 3 21 2 21 -3 0 -5 -9 -12 -20 -15
-29 -8 -26 -37 5 -37 22 0 25 4 25 35 0 28 -4 35 -19 35 -11 0 -23 -5 -27 -11z
m31 -39 c-3 -5 -10 -10 -16 -10 -5 0 -9 5 -9 10 0 6 7 10 16 10 8 0 12 -4 9
-10z"/>
<path d="M4812 3328 c-2 -34 1 -38 22 -38 13 0 27 -6 30 -12 3 -7 2 7 -1 32
-7 55 -13 65 -13 22 0 -44 -27 -43 -33 1 -4 31 -4 31 -5 -5z"/>
<path d="M4881 3326 c-1 -26 2 -37 9 -30 6 6 6 21 1 39 -9 30 -9 30 -10 -9z"/>
<path d="M4906 3344 c-8 -22 -8 -26 3 -19 5 3 12 -5 14 -17 3 -15 5 -9 6 15 1
38 -12 50 -23 21z"/>
<path d="M4941 3328 c-1 -39 12 -51 23 -22 8 22 8 26 -3 19 -5 -3 -12 5 -14
17 -3 15 -5 9 -6 -14z"/>
<path d="M4976 3352 c-3 -5 -1 -22 4 -38 8 -29 8 -29 9 9 1 36 -3 45 -13 29z"/>
<path d="M4109 2551 c-25 -20 -21 -44 10 -61 29 -15 66 21 52 49 -15 28 -37
32 -62 12z m21 -26 c0 -14 -4 -25 -9 -25 -12 0 -19 21 -13 38 8 21 22 13 22
-13z m30 0 c0 -8 -4 -17 -10 -20 -6 -4 -10 5 -10 20 0 15 4 24 10 20 6 -3 10
-12 10 -20z"/>
<path d="M4194 2536 c-10 -26 0 -51 21 -51 16 0 20 7 20 30 0 33 -30 49 -41
21z m32 -32 c-5 -13 -10 -14 -18 -6 -6 6 -8 18 -4 28 5 13 10 14 18 6 6 -6 8
-18 4 -28z"/>
<path d="M4250 2505 c0 -25 5 -45 10 -45 6 0 10 5 10 10 0 6 6 10 14 10 17 0
28 27 21 51 -4 12 -16 19 -31 19 -22 0 -24 -4 -24 -45z m40 10 c0 -14 -4 -25
-10 -25 -5 0 -10 11 -10 25 0 14 5 25 10 25 6 0 10 -11 10 -25z"/>
<path d="M4321 2513 c1 -21 3 -30 6 -20 5 18 5 18 18 0 13 -17 14 -17 21 1 7
19 8 19 15 0 6 -14 8 -9 8 19 1 41 -14 50 -25 15 l-7 -23 -10 23 c-15 33 -27
27 -26 -15z"/>
<path d="M4404 2539 c-4 -8 0 -9 15 -4 11 3 21 2 21 -3 0 -5 -9 -12 -21 -15
-28 -7 -19 -31 12 -35 23 -3 25 0 21 33 -3 26 -9 35 -23 35 -10 0 -21 -5 -25
-11z m36 -39 c0 -5 -4 -10 -10 -10 -5 0 -10 5 -10 10 0 6 5 10 10 10 6 0 10
-4 10 -10z"/>
<path d="M4490 2426 c7 -7 13 -7 20 0 6 6 3 10 -10 10 -13 0 -16 -4 -10 -10z"/>
<path d="M4032 2375 c0 -22 2 -32 5 -22 2 9 11 17 18 17 7 0 16 -8 18 -17 3
-10 5 0 5 22 0 22 -2 32 -5 23 -2 -10 -11 -18 -18 -18 -7 0 -16 8 -18 18 -3 9
-5 -1 -5 -23z"/>
<path d="M4101 2392 c-7 -14 -7 -24 3 -37 19 -27 48 -12 44 22 -4 33 -32 42
-47 15z m34 -17 c0 -10 -6 -20 -12 -22 -8 -3 -13 5 -13 22 0 17 5 25 13 23 6
-3 12 -13 12 -23z"/>
<path d="M4160 2376 c0 -32 3 -36 25 -36 22 0 24 4 22 33 -2 24 -8 33 -25 35
-19 3 -22 -1 -22 -32z m40 14 c0 -5 -7 -10 -15 -10 -8 0 -15 5 -15 10 0 6 7
10 15 10 8 0 15 -4 15 -10z m0 -30 c0 -5 -7 -10 -15 -10 -8 0 -15 5 -15 10 0
6 7 10 15 10 8 0 15 -4 15 -10z"/>
<path d="M4224 2396 c-10 -26 1 -51 22 -54 24 -3 38 20 29 49 -7 22 -43 25
-51 5z m36 -21 c0 -14 -4 -25 -10 -25 -5 0 -10 11 -10 25 0 14 5 25 10 25 6 0
10 -11 10 -25z"/>
<path d="M4296 2402 c-3 -3 -6 -16 -6 -29 0 -26 25 -42 42 -25 7 7 4 10 -8 9
-13 -1 -19 5 -19 18 0 14 7 20 28 22 24 2 27 -2 27 -28 0 -16 5 -29 10 -29 6
0 10 14 10 30 0 38 18 40 22 3 3 -31 32 -43 52 -23 8 9 6 11 -11 6 -12 -4 -24
-2 -28 4 -4 6 4 10 19 10 27 0 31 7 18 26 -7 12 -145 17 -156 6z m144 -12 c0
-5 -4 -10 -10 -10 -5 0 -10 5 -10 10 0 6 5 10 10 10 6 0 10 -4 10 -10z"/>
<path d="M4471 2378 c-1 -39 12 -51 23 -22 8 22 8 26 -3 19 -5 -3 -12 5 -14
17 -3 15 -5 9 -6 -14z"/>
<path d="M4506 2402 c-3 -5 -1 -22 4 -38 8 -29 8 -29 9 9 1 36 -3 45 -13 29z"/>
<path d="M6089 2151 c-25 -20 -21 -44 10 -61 29 -15 66 21 52 49 -15 28 -37
32 -62 12z m21 -26 c0 -14 -4 -25 -9 -25 -12 0 -19 21 -13 38 8 21 22 13 22
-13z m30 0 c0 -8 -4 -17 -10 -20 -6 -4 -10 5 -10 20 0 15 4 24 10 20 6 -3 10
-12 10 -20z"/>
<path d="M6174 2136 c-10 -26 0 -51 21 -51 16 0 20 7 20 30 0 33 -30 49 -41
21z m32 -32 c-5 -13 -10 -14 -18 -6 -6 6 -8 18 -4 28 5 13 10 14 18 6 6 -6 8
-18 4 -28z"/>
<path d="M6230 2105 c0 -25 5 -45 10 -45 6 0 10 5 10 10 0 6 6 10 14 10 17 0
28 27 21 51 -4 12 -16 19 -31 19 -22 0 -24 -4 -24 -45z m40 10 c0 -14 -4 -25
-10 -25 -5 0 -10 11 -10 25 0 14 5 25 10 25 6 0 10 -11 10 -25z"/>
<path d="M6301 2113 c1 -21 3 -30 6 -20 5 18 5 18 18 0 13 -17 14 -17 21 1 7
19 8 19 15 0 6 -14 8 -9 8 19 1 41 -14 50 -25 15 l-7 -23 -10 23 c-15 33 -27
27 -26 -15z"/>
<path d="M6384 2139 c-4 -8 0 -9 15 -4 11 3 21 2 21 -3 0 -5 -9 -12 -21 -15
-28 -7 -19 -31 12 -35 23 -3 25 0 21 33 -3 26 -9 35 -23 35 -10 0 -21 -5 -25
-11z m36 -39 c0 -5 -4 -10 -10 -10 -5 0 -10 5 -10 10 0 6 5 10 10 10 6 0 10
-4 10 -10z"/>
<path d="M5912 1973 c1 -37 1 -37 5 -5 3 18 10 32 18 32 8 0 15 -14 18 -32 4
-32 4 -32 5 5 2 33 0 37 -23 37 -23 0 -25 -4 -23 -37z"/>
<path d="M5981 1992 c-13 -25 9 -58 33 -49 11 4 16 1 17 -11 0 -10 3 -12 6 -4
2 6 15 12 28 12 13 0 26 -6 29 -12 4 -7 4 -2 1 12 -2 14 -5 35 -5 48 0 15 -6
22 -20 22 -15 0 -20 -7 -20 -24 0 -35 -18 -42 -22 -9 -4 33 -32 42 -47 15z
m34 -17 c0 -10 -6 -20 -12 -22 -8 -3 -13 5 -13 22 0 17 5 25 13 23 6 -3 12
-13 12 -23z m65 0 c0 -14 -6 -25 -14 -25 -9 0 -12 8 -8 25 2 14 8 25 13 25 5
0 9 -11 9 -25z"/>
<path d="M6112 1973 c1 -37 1 -37 5 -5 3 18 10 32 18 32 8 0 15 -14 18 -32 4
-32 4 -32 5 5 2 33 0 37 -23 37 -23 0 -25 -4 -23 -37z"/>
<path d="M6181 1976 c-1 -26 2 -37 9 -30 6 6 6 21 1 39 -9 30 -9 30 -10 -9z"/>
<path d="M6206 1994 c-8 -22 -8 -26 3 -19 5 3 12 -5 14 -17 3 -15 5 -9 6 15 1
38 -12 50 -23 21z"/>
<path d="M6244 1986 c-3 -14 -3 -30 1 -35 8 -14 45 -14 45 -1 0 5 -7 7 -15 4
-11 -5 -15 1 -15 20 0 31 14 33 37 6 10 -11 23 -20 29 -20 7 0 15 -6 17 -12 3
-7 5 5 5 27 0 22 -3 30 -5 18 -5 -27 -33 -31 -33 -5 0 13 -9 18 -30 20 -24 2
-31 -2 -36 -22z"/>
<path d="M6361 1978 c-1 -39 12 -51 23 -22 8 22 8 26 -3 19 -5 -3 -12 5 -14
17 -3 15 -5 9 -6 -14z"/>
<path d="M6396 2002 c-3 -5 -1 -22 4 -38 8 -29 8 -29 9 9 1 36 -3 45 -13 29z"/>
<path d="M6431 1975 c0 -30 2 -35 9 -20 7 18 8 19 15 3 4 -10 12 -18 18 -18 6
0 1 10 -10 23 -11 12 -23 29 -26 37 -3 8 -5 -3 -6 -25z"/>
<path d="M6457 2003 c-4 -3 -7 -11 -7 -17 0 -6 5 -5 12 2 6 6 9 14 7 17 -3 3
-9 2 -12 -2z"/>
<path d="M6491 1992 c-7 -14 -7 -24 3 -37 19 -27 48 -12 44 22 -4 33 -32 42
-47 15z m34 -17 c0 -10 -6 -20 -12 -22 -8 -3 -13 5 -13 22 0 17 5 25 13 23 6
-3 12 -13 12 -23z"/>
<path d="M6550 1976 c0 -32 3 -36 25 -36 22 0 24 4 22 33 -2 24 -8 33 -25 35
-19 3 -22 -1 -22 -32z m40 14 c0 -5 -7 -10 -15 -10 -8 0 -15 5 -15 10 0 6 7
10 15 10 8 0 15 -4 15 -10z m0 -30 c0 -5 -7 -10 -15 -10 -8 0 -15 5 -15 10 0
6 7 10 15 10 8 0 15 -4 15 -10z"/>
<path d="M1389 1151 c-25 -20 -21 -44 10 -61 29 -15 66 21 52 49 -15 28 -37
32 -62 12z m21 -26 c0 -14 -4 -25 -9 -25 -12 0 -19 21 -13 38 8 21 22 13 22
-13z m30 0 c0 -8 -4 -17 -10 -20 -6 -4 -10 5 -10 20 0 15 4 24 10 20 6 -3 10
-12 10 -20z"/>
<path d="M1474 1136 c-10 -26 0 -51 21 -51 16 0 20 7 20 30 0 33 -30 49 -41
21z m32 -32 c-5 -13 -10 -14 -18 -6 -6 6 -8 18 -4 28 5 13 10 14 18 6 6 -6 8
-18 4 -28z"/>
<path d="M1530 1105 c0 -25 5 -45 10 -45 6 0 10 5 10 10 0 6 6 10 14 10 17 0
28 27 21 51 -4 12 -16 19 -31 19 -22 0 -24 -4 -24 -45z m40 10 c0 -14 -4 -25
-10 -25 -5 0 -10 11 -10 25 0 14 5 25 10 25 6 0 10 -11 10 -25z"/>
<path d="M1601 1113 c1 -21 3 -30 6 -20 5 18 5 18 18 0 13 -17 14 -17 21 1 7
19 8 19 15 0 6 -14 8 -9 8 19 1 41 -14 50 -25 15 l-7 -23 -10 23 c-15 33 -27
27 -26 -15z"/>
<path d="M1684 1139 c-4 -8 0 -9 15 -4 11 3 21 2 21 -3 0 -5 -9 -12 -21 -15
-28 -7 -19 -31 12 -35 23 -3 25 0 21 33 -3 26 -9 35 -23 35 -10 0 -21 -5 -25
-11z m36 -39 c0 -5 -4 -10 -10 -10 -5 0 -10 5 -10 10 0 6 5 10 10 10 6 0 10
-4 10 -10z"/>
<path d="M1312 975 c0 -22 2 -32 5 -22 2 9 11 17 18 17 7 0 16 -8 18 -17 3
-10 5 0 5 22 0 22 -2 32 -5 23 -2 -10 -11 -18 -18 -18 -7 0 -16 8 -18 18 -3 9
-5 -1 -5 -23z"/>
<path d="M1385 1001 c-3 -6 0 -8 8 -5 8 3 18 1 22 -5 3 -7 -2 -11 -14 -11 -14
0 -21 -6 -21 -20 0 -15 7 -20 26 -20 23 0 25 3 22 32 -3 33 -29 50 -43 29z
m30 -41 c-3 -5 -10 -10 -16 -10 -5 0 -9 5 -9 10 0 6 7 10 16 10 8 0 12 -4 9
-10z"/>
<path d="M1451 991 c-18 -32 26 -70 45 -40 4 8 0 9 -15 4 -17 -5 -21 -2 -21
18 0 20 5 24 30 24 27 0 30 -4 31 -31 l2 -31 4 30 c3 16 10 33 16 37 7 4 -10
7 -36 6 -33 0 -50 -5 -56 -17z"/>
<path d="M1561 963 c0 -27 3 -42 6 -35 2 6 10 12 18 12 20 0 37 27 30 50 -4
13 -15 20 -31 20 -22 0 -24 -4 -23 -47z m39 12 c0 -14 -4 -25 -9 -25 -12 0
-19 21 -13 38 8 21 22 13 22 -13z"/>
<path d="M1634 996 c-10 -26 0 -51 21 -51 16 0 20 7 20 30 0 33 -30 49 -41 21z
m32 -32 c-5 -13 -10 -14 -18 -6 -6 6 -8 18 -4 28 5 13 10 14 18 6 6 -6 8 -18
4 -28z"/>
<path d="M1694 996 c-15 -39 23 -74 50 -46 8 9 6 11 -11 6 -12 -4 -24 -2 -28
4 -4 6 5 10 20 10 21 0 26 4 21 16 -3 9 -6 18 -6 20 0 11 -41 2 -46 -10z m36
-6 c0 -5 -4 -10 -10 -10 -5 0 -10 5 -10 10 0 6 5 10 10 10 6 0 10 -4 10 -10z"/>
<path d="M1761 975 c0 -30 2 -35 9 -20 7 18 8 19 15 3 4 -10 12 -18 18 -18 6
0 1 10 -10 23 -11 12 -23 29 -26 37 -3 8 -5 -3 -6 -25z"/>
<path d="M1787 1003 c-4 -3 -7 -11 -7 -17 0 -6 5 -5 12 2 6 6 9 14 7 17 -3 3
-9 2 -12 -2z"/>
<path d="M3189 1151 c-25 -20 -21 -44 10 -61 29 -15 66 21 52 49 -15 28 -37
32 -62 12z m21 -26 c0 -14 -4 -25 -9 -25 -12 0 -19 21 -13 38 8 21 22 13 22
-13z m30 0 c0 -8 -4 -17 -10 -20 -6 -4 -10 5 -10 20 0 15 4 24 10 20 6 -3 10
-12 10 -20z"/>
<path d="M3274 1136 c-10 -26 0 -51 21 -51 16 0 20 7 20 30 0 33 -30 49 -41
21z m32 -32 c-5 -13 -10 -14 -18 -6 -6 6 -8 18 -4 28 5 13 10 14 18 6 6 -6 8
-18 4 -28z"/>
<path d="M3330 1105 c0 -25 5 -45 10 -45 6 0 10 5 10 10 0 6 6 10 14 10 17 0
28 27 21 51 -4 12 -16 19 -31 19 -22 0 -24 -4 -24 -45z m40 10 c0 -14 -4 -25
-10 -25 -5 0 -10 11 -10 25 0 14 5 25 10 25 6 0 10 -11 10 -25z"/>
<path d="M3401 1113 c1 -21 3 -30 6 -20 5 18 5 18 18 0 13 -17 14 -17 21 1 7
19 8 19 15 0 6 -14 8 -9 8 19 1 41 -14 50 -25 15 l-7 -23 -10 23 c-15 33 -27
27 -26 -15z"/>
<path d="M3484 1139 c-4 -8 0 -9 15 -4 11 3 21 2 21 -3 0 -5 -9 -12 -21 -15
-28 -7 -19 -31 12 -35 23 -3 25 0 21 33 -3 26 -9 35 -23 35 -10 0 -21 -5 -25
-11z m36 -39 c0 -5 -4 -10 -10 -10 -5 0 -10 5 -10 10 0 6 5 10 10 10 6 0 10
-4 10 -10z"/>
<path d="M2991 978 c-1 -39 12 -51 23 -22 8 22 8 26 -3 19 -5 -3 -12 5 -14 17
-3 15 -5 9 -6 -14z"/>
<path d="M3026 1002 c-3 -5 -1 -22 4 -38 8 -29 8 -29 9 9 1 36 -3 45 -13 29z"/>
<path d="M3062 975 c0 -22 2 -32 5 -22 2 9 11 17 18 17 7 0 16 -8 18 -17 3
-10 5 0 5 22 0 22 -2 32 -5 23 -2 -10 -11 -18 -18 -18 -7 0 -16 8 -18 18 -3 9
-5 -1 -5 -23z"/>
<path d="M3127 1002 c6 -4 13 -21 16 -37 l4 -30 2 32 c0 17 7 34 14 36 6 3 -1
6 -18 6 -16 0 -25 -3 -18 -7z"/>
<path d="M3187 1004 c-4 -4 -7 -18 -7 -31 0 -27 26 -41 43 -23 9 10 7 11 -10
5 -14 -4 -23 -2 -23 4 0 6 9 11 21 11 14 0 19 5 17 17 -3 19 -29 29 -41 17z
m28 -14 c3 -5 -1 -10 -9 -10 -9 0 -16 5 -16 10 0 6 4 10 9 10 6 0 13 -4 16
-10z"/>
<path d="M3250 963 c0 -26 4 -43 8 -37 4 6 15 13 25 17 27 10 19 61 -10 65
-21 3 -23 -1 -23 -45z m37 3 c-4 -9 -11 -16 -17 -16 -11 0 -14 33 -3 44 11 10
26 -11 20 -28z"/>
<path d="M3314 996 c-15 -39 23 -74 50 -46 8 9 6 11 -11 6 -12 -4 -24 -2 -28
4 -4 6 5 10 20 10 21 0 26 4 21 16 -3 9 -6 18 -6 20 0 11 -41 2 -46 -10z m36
-6 c0 -5 -4 -10 -10 -10 -5 0 -10 5 -10 10 0 6 5 10 10 10 6 0 10 -4 10 -10z"/>
<path d="M3385 1002 c-3 -3 -5 -16 -5 -29 0 -27 26 -41 43 -23 9 10 7 11 -10
5 -19 -5 -23 -3 -23 18 0 20 5 24 29 24 26 0 31 -5 34 -31 l4 -31 1 33 c1 21
7 32 17 32 10 0 15 -11 16 -32 1 -18 3 -25 6 -15 2 9 11 17 18 17 7 0 16 -8
18 -17 3 -10 5 0 5 22 0 22 -2 32 -5 23 -5 -22 -33 -24 -33 -3 0 12 -12 15
-55 14 -30 -1 -57 -4 -60 -7z"/>
<path d="M3567 1004 c-13 -13 -7 -55 9 -61 24 -9 51 23 38 45 -12 19 -36 27
-47 16z m33 -29 c0 -26 -14 -33 -25 -15 -9 14 1 40 15 40 5 0 10 -11 10 -25z"/>
<path d="M3631 973 c2 -35 2 -35 6 -8 3 16 10 33 16 37 8 5 6 8 -5 8 -14 0
-18 -8 -17 -37z"/>
<path d="M3674 996 c-10 -26 0 -51 21 -51 16 0 20 7 20 30 0 33 -30 49 -41 21z
m32 -32 c-5 -13 -10 -14 -18 -6 -6 6 -8 18 -4 28 5 13 10 14 18 6 6 -6 8 -18
4 -28z"/>
<path d="M4969 1151 c-25 -20 -21 -44 10 -61 29 -15 66 21 52 49 -15 28 -37
32 -62 12z m21 -26 c0 -14 -4 -25 -9 -25 -12 0 -19 21 -13 38 8 21 22 13 22
-13z m30 0 c0 -8 -4 -17 -10 -20 -6 -4 -10 5 -10 20 0 15 4 24 10 20 6 -3 10
-12 10 -20z"/>
<path d="M5054 1136 c-10 -26 0 -51 21 -51 16 0 20 7 20 30 0 33 -30 49 -41
21z m32 -32 c-5 -13 -10 -14 -18 -6 -6 6 -8 18 -4 28 5 13 10 14 18 6 6 -6 8
-18 4 -28z"/>
<path d="M5110 1105 c0 -25 5 -45 10 -45 6 0 10 5 10 10 0 6 6 10 14 10 17 0
28 27 21 51 -4 12 -16 19 -31 19 -22 0 -24 -4 -24 -45z m40 10 c0 -14 -4 -25
-10 -25 -5 0 -10 11 -10 25 0 14 5 25 10 25 6 0 10 -11 10 -25z"/>
<path d="M5181 1113 c1 -21 3 -30 6 -20 5 18 5 18 18 0 13 -17 14 -17 21 1 7
19 8 19 15 0 6 -14 8 -9 8 19 1 41 -14 50 -25 15 l-7 -23 -10 23 c-15 33 -27
27 -26 -15z"/>
<path d="M5264 1139 c-4 -8 0 -9 15 -4 11 3 21 2 21 -3 0 -5 -9 -12 -21 -15
-28 -7 -19 -31 12 -35 23 -3 25 0 21 33 -3 26 -9 35 -23 35 -10 0 -21 -5 -25
-11z m36 -39 c0 -5 -4 -10 -10 -10 -5 0 -10 5 -10 10 0 6 5 10 10 10 6 0 10
-4 10 -10z"/>
<path d="M4892 973 c1 -37 1 -37 5 -5 3 18 10 32 18 32 8 0 15 -14 18 -32 4
-32 4 -32 5 5 2 33 0 37 -23 37 -23 0 -25 -4 -23 -37z"/>
<path d="M4954 996 c-10 -26 1 -51 22 -54 24 -3 38 20 29 49 -7 22 -43 25 -51
5z m36 -21 c0 -14 -4 -25 -10 -25 -5 0 -10 11 -10 25 0 14 5 25 10 25 6 0 10
-11 10 -25z"/>
<path d="M5020 988 c0 -13 -3 -34 -5 -48 -3 -14 -3 -19 1 -12 3 6 14 12 24 12
10 0 20 -6 23 -12 9 -26 16 -1 10 40 -5 36 -9 42 -29 42 -18 0 -24 -6 -24 -22z
m40 -13 c0 -16 -6 -25 -15 -25 -15 0 -21 31 -8 43 13 14 23 6 23 -18z"/>
<path d="M5092 973 c1 -37 1 -37 5 -5 5 40 23 42 23 2 0 -16 5 -30 10 -30 6 0
10 16 10 35 0 31 -3 35 -25 35 -23 0 -25 -4 -23 -37z"/>
<path d="M5151 978 c-1 -39 12 -51 23 -22 8 22 8 26 -3 19 -5 -3 -12 5 -14 17
-3 15 -5 9 -6 -14z"/>
<path d="M5186 1002 c-3 -5 -1 -22 4 -38 8 -29 8 -29 9 9 1 36 -3 45 -13 29z"/>
<path d="M5227 1003 c-4 -3 -7 -17 -7 -30 0 -27 26 -41 43 -23 9 10 7 11 -10
5 -20 -5 -23 -3 -23 20 0 22 3 25 21 20 15 -5 19 -4 15 4 -8 12 -29 15 -39 4z"/>
<path d="M5287 1004 c-13 -13 -7 -55 9 -61 24 -9 51 23 38 45 -12 19 -36 27
-47 16z m33 -29 c0 -26 -14 -33 -25 -15 -9 14 1 40 15 40 5 0 10 -11 10 -25z"/>
<path d="M5351 975 l-1 -40 19 35 c18 33 19 60 2 31 -7 -11 -10 -11 -14 0 -3
8 -6 -4 -6 -26z"/>
<path d="M5370 961 c0 -6 4 -13 10 -16 6 -3 7 1 4 9 -7 18 -14 21 -14 7z"/>
<path d="M6889 1071 c-25 -20 -21 -44 10 -61 29 -15 66 21 52 49 -15 28 -37
32 -62 12z m21 -26 c0 -14 -4 -25 -9 -25 -12 0 -19 21 -13 38 8 21 22 13 22
-13z m30 0 c0 -8 -4 -17 -10 -20 -6 -4 -10 5 -10 20 0 15 4 24 10 20 6 -3 10
-12 10 -20z"/>
<path d="M6974 1056 c-10 -26 0 -51 21 -51 16 0 20 7 20 30 0 33 -30 49 -41
21z m32 -32 c-5 -13 -10 -14 -18 -6 -6 6 -8 18 -4 28 5 13 10 14 18 6 6 -6 8
-18 4 -28z"/>
<path d="M7030 1025 c0 -25 5 -45 10 -45 6 0 10 5 10 10 0 6 6 10 14 10 17 0
28 27 21 51 -4 12 -16 19 -31 19 -22 0 -24 -4 -24 -45z m40 10 c0 -14 -4 -25
-10 -25 -5 0 -10 11 -10 25 0 14 5 25 10 25 6 0 10 -11 10 -25z"/>
<path d="M7101 1033 c1 -21 3 -30 6 -20 5 18 5 18 18 0 13 -17 14 -17 21 1 7
19 8 19 15 0 6 -14 8 -9 8 19 1 41 -14 50 -25 15 l-7 -23 -10 23 c-15 33 -27
27 -26 -15z"/>
<path d="M7184 1059 c-4 -8 0 -9 15 -4 11 3 21 2 21 -3 0 -5 -9 -12 -21 -15
-28 -7 -19 -31 12 -35 23 -3 25 0 21 33 -3 26 -9 35 -23 35 -10 0 -21 -5 -25
-11z m36 -39 c0 -5 -4 -10 -10 -10 -5 0 -10 5 -10 10 0 6 5 10 10 10 6 0 10
-4 10 -10z"/>
<path d="M6861 889 c-7 -23 -10 -44 -7 -47 3 -3 6 0 6 6 0 16 47 15 54 0 4 -7
4 -2 1 12 -2 14 -5 35 -5 48 0 15 -6 22 -18 22 -13 0 -23 -12 -31 -41z m39 6
c0 -16 -6 -25 -15 -25 -16 0 -19 9 -9 34 9 25 24 19 24 -9z"/>
<path d="M6930 883 c0 -26 4 -43 8 -37 4 6 15 13 25 17 27 10 19 61 -10 65
-21 3 -23 -1 -23 -45z m36 1 c-5 -13 -10 -14 -18 -6 -6 6 -8 18 -4 28 5 13 10
14 18 6 6 -6 8 -18 4 -28z"/>
<path d="M6991 920 c0 -8 4 -24 8 -35 5 -11 4 -25 -1 -32 -7 -9 -7 -13 1 -13
11 0 22 21 35 70 l7 25 -14 -23 -13 -23 -12 23 c-6 13 -11 16 -11 8z"/>
<path d="M7052 892 l1 -37 4 33 c5 39 30 43 35 5 4 -33 41 -45 52 -17 14 35
-2 52 -49 52 l-45 0 2 -36z m78 3 c0 -14 -4 -25 -10 -25 -5 0 -10 11 -10 25 0
14 5 25 10 25 6 0 10 -11 10 -25z"/>
<path d="M7162 892 l1 -37 4 33 c5 39 30 43 35 5 4 -33 41 -45 52 -17 14 35
-2 52 -49 52 l-45 0 2 -36z m78 3 c0 -14 -4 -25 -10 -25 -5 0 -10 11 -10 25 0
14 5 25 10 25 6 0 10 -11 10 -25z"/>
<path d="M6682 753 c1 -37 1 -37 5 -5 3 18 10 32 18 32 8 0 15 -14 18 -32 4
-32 4 -32 5 5 2 33 0 37 -23 37 -23 0 -25 -4 -23 -37z"/>
<path d="M6754 776 c-10 -26 0 -51 21 -51 16 0 20 7 20 30 0 33 -30 49 -41 21z
m32 -32 c-5 -13 -10 -14 -18 -6 -6 6 -8 18 -4 28 5 13 10 14 18 6 6 -6 8 -18
4 -28z"/>
<path d="M6818 755 c-2 -19 0 -35 4 -35 4 0 8 14 8 30 0 42 27 40 33 -2 4 -32
4 -32 5 5 2 33 -1 37 -22 37 -20 0 -25 -6 -28 -35z"/>
<path d="M6881 758 c-1 -34 2 -38 24 -38 18 0 25 5 25 20 0 13 -7 20 -19 20
-11 0 -22 8 -24 18 -3 9 -5 0 -6 -20z m39 -18 c0 -5 -7 -10 -15 -10 -8 0 -15
5 -15 10 0 6 7 10 15 10 8 0 15 -4 15 -10z"/>
<path d="M6944 779 c-5 -9 -2 -10 10 -6 14 5 17 3 12 -8 -3 -8 -1 -15 4 -15 6
0 10 -5 10 -11 0 -7 -9 -9 -21 -6 -16 4 -19 3 -11 -5 18 -18 41 -1 39 29 -3
29 -29 43 -43 22z"/>
<path d="M7004 776 c-10 -26 0 -51 21 -51 16 0 20 7 20 30 0 33 -30 49 -41 21z
m32 -32 c-5 -13 -10 -14 -18 -6 -6 6 -8 18 -4 28 5 13 10 14 18 6 6 -6 8 -18
4 -28z"/>
<path d="M7070 755 c0 -32 3 -36 23 -33 32 4 31 62 -1 66 -19 3 -22 -1 -22
-33z m30 15 c0 -5 -4 -10 -10 -10 -5 0 -10 5 -10 10 0 6 5 10 10 10 6 0 10 -4
10 -10z m0 -30 c0 -5 -4 -10 -10 -10 -5 0 -10 5 -10 10 0 6 5 10 10 10 6 0 10
-4 10 -10z"/>
<path d="M7134 779 c-3 -5 1 -6 9 -3 8 3 18 1 22 -5 3 -7 -2 -11 -14 -11 -14
0 -21 -6 -21 -20 0 -15 7 -20 25 -20 21 0 25 5 25 30 0 17 5 30 10 30 6 0 10
-13 10 -30 0 -16 5 -30 10 -30 6 0 10 13 10 29 0 16 6 32 13 34 6 3 -12 5 -41
5 -29 0 -55 -4 -58 -9z m31 -39 c-3 -5 -10 -10 -16 -10 -5 0 -9 5 -9 10 0 6 7
10 16 10 8 0 12 -4 9 -10z"/>
<path d="M7250 775 c-20 -24 0 -50 39 -52 28 -1 31 2 31 28 0 41 28 38 33 -3
4 -32 4 -32 5 5 2 33 0 37 -23 37 -21 0 -25 -5 -25 -27 0 -23 -5 -28 -25 -29
-14 -1 -25 2 -25 7 0 5 9 9 21 9 14 0 19 5 17 17 -4 24 -32 28 -48 8z m35 -5
c3 -5 -1 -10 -9 -10 -9 0 -16 5 -16 10 0 6 4 10 9 10 6 0 13 -4 16 -10z"/>
<path d="M7383 771 c2 -10 0 -26 -5 -35 -5 -10 -5 -16 0 -16 6 0 12 7 16 15 7
20 24 19 29 -2 3 -10 5 -1 6 20 1 34 -1 37 -25 37 -21 0 -25 -4 -21 -19z m37
-1 c0 -5 -7 -10 -15 -10 -8 0 -15 5 -15 10 0 6 7 10 15 10 8 0 15 -4 15 -10z"/>
<path d="M689 421 c-25 -20 -21 -44 10 -61 29 -15 66 21 52 49 -15 28 -37 32
-62 12z m21 -26 c0 -14 -4 -25 -9 -25 -12 0 -19 21 -13 38 8 21 22 13 22 -13z
m30 0 c0 -8 -4 -17 -10 -20 -6 -4 -10 5 -10 20 0 15 4 24 10 20 6 -3 10 -12
10 -20z"/>
<path d="M774 406 c-10 -26 0 -51 21 -51 16 0 20 7 20 30 0 33 -30 49 -41 21z
m32 -32 c-5 -13 -10 -14 -18 -6 -6 6 -8 18 -4 28 5 13 10 14 18 6 6 -6 8 -18
4 -28z"/>
<path d="M830 375 c0 -25 5 -45 10 -45 6 0 10 5 10 10 0 6 6 10 14 10 17 0 28
27 21 51 -4 12 -16 19 -31 19 -22 0 -24 -4 -24 -45z m40 10 c0 -14 -4 -25 -10
-25 -5 0 -10 11 -10 25 0 14 5 25 10 25 6 0 10 -11 10 -25z"/>
<path d="M901 383 c1 -21 3 -30 6 -20 5 18 5 18 18 0 13 -17 14 -17 21 1 7 19
8 19 15 0 6 -14 8 -9 8 19 1 41 -14 50 -25 15 l-7 -23 -10 23 c-15 33 -27 27
-26 -15z"/>
<path d="M984 409 c-4 -8 0 -9 15 -4 11 3 21 2 21 -3 0 -5 -9 -12 -21 -15 -28
-7 -19 -31 12 -35 23 -3 25 0 21 33 -3 26 -9 35 -23 35 -10 0 -21 -5 -25 -11z
m36 -39 c0 -5 -4 -10 -10 -10 -5 0 -10 5 -10 10 0 6 5 10 10 10 6 0 10 -4 10
-10z"/>
<path d="M684 256 c-3 -14 -3 -30 1 -35 8 -14 45 -14 45 -1 0 5 -7 7 -15 4
-11 -5 -15 1 -15 21 0 20 4 26 15 21 8 -3 15 -1 15 4 0 22 -40 9 -46 -14z"/>
<path d="M741 243 c0 -29 2 -33 8 -18 8 19 8 19 19 0 10 -20 11 -20 18 -1 7
19 8 19 15 0 6 -14 8 -9 8 19 1 41 -14 50 -25 15 l-7 -23 -10 23 c-15 33 -27
27 -26 -15z"/>
<path d="M830 266 c-24 -30 17 -73 43 -46 9 10 7 11 -10 5 -14 -4 -23 -2 -23
4 0 6 9 11 21 11 14 0 19 5 17 17 -4 23 -31 28 -48 9z m35 -6 c3 -5 -1 -10 -9
-10 -9 0 -16 5 -16 10 0 6 4 10 9 10 6 0 13 -4 16 -10z"/>
<path d="M892 245 c0 -22 2 -32 5 -22 2 9 11 17 18 17 7 0 16 -8 18 -17 3 -10
5 0 5 22 0 22 -2 32 -5 23 -2 -10 -11 -18 -18 -18 -7 0 -16 8 -18 18 -3 9 -5
-1 -5 -23z"/>
<path d="M961 248 c-1 -37 0 -38 34 -35 33 2 35 4 34 37 -1 25 -3 28 -6 12 -3
-16 -9 -22 -20 -18 -8 3 -18 6 -23 6 -5 0 -11 8 -13 18 -3 9 -5 0 -6 -20z m39
-18 c0 -5 -7 -10 -15 -10 -8 0 -15 5 -15 10 0 6 7 10 15 10 8 0 15 -4 15 -10z"/>
<path d="M672 103 c1 -37 1 -37 5 -5 5 40 23 42 23 2 0 -16 5 -30 10 -30 6 0
10 16 10 35 0 31 -3 35 -25 35 -23 0 -25 -4 -23 -37z"/>
<path d="M735 131 c-3 -6 0 -8 8 -5 8 3 18 1 22 -5 3 -7 -2 -11 -14 -11 -14 0
-21 -6 -21 -20 0 -15 7 -20 26 -20 23 0 25 3 22 32 -3 33 -29 50 -43 29z m30
-41 c-3 -5 -10 -10 -16 -10 -5 0 -9 5 -9 10 0 6 7 10 16 10 8 0 12 -4 9 -10z"/>
<path d="M800 93 c0 -26 4 -43 8 -37 4 6 15 13 25 17 27 10 19 61 -10 65 -21
3 -23 -1 -23 -45z m37 3 c-4 -9 -11 -16 -17 -16 -11 0 -14 33 -3 44 11 10 26
-11 20 -28z"/>
<path d="M864 126 c-10 -26 1 -51 22 -54 24 -3 38 20 29 49 -7 22 -43 25 -51
5z m36 -21 c0 -14 -4 -25 -10 -25 -5 0 -10 11 -10 25 0 14 5 25 10 25 6 0 10
-11 10 -25z"/>
<path d="M928 105 c-2 -19 0 -35 4 -35 4 0 8 14 8 30 0 42 27 40 33 -2 4 -32
4 -32 5 5 2 33 -1 37 -22 37 -20 0 -25 -6 -28 -35z"/>
<path d="M1003 121 c2 -10 0 -26 -5 -35 -5 -10 -5 -16 0 -16 6 0 12 7 16 15 7
20 24 19 29 -2 3 -10 5 -1 6 20 1 34 -1 37 -25 37 -21 0 -25 -4 -21 -19z m37
-1 c0 -5 -7 -10 -15 -10 -8 0 -15 5 -15 10 0 6 7 10 15 10 8 0 15 -4 15 -10z"/>
<path d="M2219 351 c-25 -20 -21 -44 10 -61 29 -15 66 21 52 49 -15 28 -37 32
-62 12z m21 -26 c0 -14 -4 -25 -9 -25 -12 0 -19 21 -13 38 8 21 22 13 22 -13z
m30 0 c0 -8 -4 -17 -10 -20 -6 -4 -10 5 -10 20 0 15 4 24 10 20 6 -3 10 -12
10 -20z"/>
<path d="M2304 336 c-10 -26 0 -51 21 -51 16 0 20 7 20 30 0 33 -30 49 -41 21z
m32 -32 c-5 -13 -10 -14 -18 -6 -6 6 -8 18 -4 28 5 13 10 14 18 6 6 -6 8 -18
4 -28z"/>
<path d="M2360 305 c0 -25 5 -45 10 -45 6 0 10 5 10 10 0 6 6 10 14 10 17 0
28 27 21 51 -4 12 -16 19 -31 19 -22 0 -24 -4 -24 -45z m40 10 c0 -14 -4 -25
-10 -25 -5 0 -10 11 -10 25 0 14 5 25 10 25 6 0 10 -11 10 -25z"/>
<path d="M2431 313 c1 -21 3 -30 6 -20 5 18 5 18 18 0 13 -17 14 -17 21 1 7
19 8 19 15 0 6 -14 8 -9 8 19 1 41 -14 50 -25 15 l-7 -23 -10 23 c-15 33 -27
27 -26 -15z"/>
<path d="M2514 339 c-4 -8 0 -9 15 -4 11 3 21 2 21 -3 0 -5 -9 -12 -21 -15
-28 -7 -19 -31 12 -35 23 -3 25 0 21 33 -3 26 -9 35 -23 35 -10 0 -21 -5 -25
-11z m36 -39 c0 -5 -4 -10 -10 -10 -5 0 -10 5 -10 10 0 6 5 10 10 10 6 0 10
-4 10 -10z"/>
<path d="M2037 203 c-4 -3 -7 -17 -7 -30 0 -27 26 -41 43 -23 9 10 7 11 -10 5
-20 -5 -23 -3 -23 20 0 22 3 25 21 20 15 -5 19 -4 15 4 -8 12 -29 15 -39 4z"/>
<path d="M2091 173 c0 -31 2 -34 9 -18 7 17 9 17 9 3 1 -17 21 -26 21 -10 0
15 -25 62 -32 62 -5 0 -8 -17 -7 -37z"/>
<path d="M2135 200 c-8 -12 5 -60 16 -60 5 0 9 16 9 35 0 33 -12 46 -25 25z"/>
<path d="M2174 196 c-10 -26 1 -51 24 -54 12 -2 22 1 22 7 0 6 -6 8 -14 5 -8
-3 -17 -1 -21 5 -4 7 4 11 20 11 23 0 24 2 15 20 -12 23 -38 26 -46 6z m36 -6
c0 -5 -7 -10 -16 -10 -8 0 -12 5 -9 10 3 6 10 10 16 10 5 0 9 -4 9 -10z"/>
<path d="M2242 175 c0 -22 2 -32 5 -22 2 9 11 17 18 17 7 0 16 -8 18 -17 3
-10 5 0 5 22 0 22 -2 32 -5 23 -2 -10 -11 -18 -18 -18 -7 0 -16 8 -18 18 -3 9
-5 -1 -5 -23z"/>
<path d="M2311 178 c-1 -36 0 -37 34 -36 33 1 35 3 35 35 0 18 -4 33 -10 33
-5 0 -10 -9 -10 -19 0 -24 -37 -17 -43 8 -3 9 -5 -1 -6 -21z m29 -18 c0 -5 -4
-10 -10 -10 -5 0 -10 5 -10 10 0 6 5 10 10 10 6 0 10 -4 10 -10z"/>
<path d="M2422 173 c1 -37 1 -37 5 -5 3 18 10 32 18 32 8 0 15 -14 18 -32 4
-32 4 -32 5 5 2 33 0 37 -23 37 -23 0 -25 -4 -23 -37z"/>
<path d="M2494 196 c-10 -26 0 -51 21 -51 16 0 20 7 20 30 0 33 -30 49 -41 21z
m32 -32 c-5 -13 -10 -14 -18 -6 -6 6 -8 18 -4 28 5 13 10 14 18 6 6 -6 8 -18
4 -28z"/>
<path d="M2551 192 c0 -13 6 -25 17 -29 9 -4 20 -11 24 -17 4 -6 7 7 6 29 0
23 -3 30 -5 18 -2 -13 -11 -23 -18 -23 -7 0 -16 10 -18 23 l-4 22 -2 -23z"/>
<path d="M2617 202 c6 -4 13 -21 16 -37 l4 -30 2 32 c0 17 7 34 14 36 6 3 -1
6 -18 6 -16 0 -25 -3 -18 -7z"/>
<path d="M2671 178 c-1 -34 2 -38 24 -38 18 0 25 5 25 20 0 13 -7 20 -19 20
-11 0 -22 8 -24 18 -3 9 -5 0 -6 -20z m39 -18 c0 -5 -7 -10 -15 -10 -8 0 -15
5 -15 10 0 6 7 10 15 10 8 0 15 -4 15 -10z"/>
<path d="M2733 175 c0 -22 2 -30 4 -17 2 12 2 30 0 40 -3 9 -5 -1 -4 -23z"/>
<path d="M1695 2535 c-23 -22 -25 -31 -25 -128 l0 -104 -42 -13 c-43 -12 -43
-13 -20 -27 12 -9 22 -22 22 -29 0 -24 18 -15 28 14 8 22 11 10 11 -61 1 -79
3 -90 26 -112 l24 -25 541 0 541 0 24 25 c23 22 25 31 25 125 0 92 2 101 18
96 63 -19 74 -19 70 0 -3 17 29 25 321 81 285 55 325 61 335 48 10 -13 16 -12
46 14 l35 29 -40 11 c-53 14 -55 14 -55 -7 0 -16 -41 -26 -322 -80 -284 -55
-323 -60 -331 -46 -7 13 -13 12 -43 -11 l-34 -26 0 101 c0 94 -2 103 -25 125
l-24 25 -541 0 -541 0 -24 -25z m1122 -8 c16 -16 18 -39 18 -222 0 -183 -2
-206 -18 -222 -17 -17 -53 -18 -557 -18 -504 0 -540 1 -557 18 -16 15 -18 41
-21 205 -3 200 2 236 40 252 13 5 246 8 550 7 491 -2 529 -3 545 -20z"/>
<path d="M2089 2471 c-25 -20 -21 -44 10 -61 29 -15 66 21 52 49 -15 28 -37
32 -62 12z m21 -26 c0 -14 -4 -25 -9 -25 -12 0 -19 21 -13 38 8 21 22 13 22
-13z m30 0 c0 -8 -4 -17 -10 -20 -6 -4 -10 5 -10 20 0 15 4 24 10 20 6 -3 10
-12 10 -20z"/>
<path d="M2174 2456 c-10 -26 0 -51 21 -51 16 0 20 7 20 30 0 33 -30 49 -41
21z m32 -32 c-5 -13 -10 -14 -18 -6 -6 6 -8 18 -4 28 5 13 10 14 18 6 6 -6 8
-18 4 -28z"/>
<path d="M2230 2425 c0 -25 5 -45 10 -45 6 0 10 5 10 10 0 6 6 10 14 10 17 0
28 27 21 51 -4 12 -16 19 -31 19 -22 0 -24 -4 -24 -45z m40 10 c0 -14 -4 -25
-10 -25 -5 0 -10 11 -10 25 0 14 5 25 10 25 6 0 10 -11 10 -25z"/>
<path d="M2301 2433 c1 -21 3 -30 6 -20 5 18 5 18 18 0 13 -17 14 -17 21 1 7
19 8 19 15 0 6 -14 8 -9 8 19 1 41 -14 50 -25 15 l-7 -23 -10 23 c-15 33 -27
27 -26 -15z"/>
<path d="M2384 2459 c-4 -8 0 -9 15 -4 11 3 21 2 21 -3 0 -5 -9 -12 -21 -15
-28 -7 -19 -31 12 -35 23 -3 25 0 21 33 -3 26 -9 35 -23 35 -10 0 -21 -5 -25
-11z m36 -39 c0 -5 -4 -10 -10 -10 -5 0 -10 5 -10 10 0 6 5 10 10 10 6 0 10
-4 10 -10z"/>
<path d="M2410 2348 c0 -4 7 -8 15 -8 8 0 15 4 15 8 0 5 -7 9 -15 9 -8 0 -15
-4 -15 -9z"/>
<path d="M2068 2295 c-2 -19 0 -35 4 -35 4 0 8 14 8 30 0 42 27 40 33 -2 4
-32 4 -32 5 5 2 33 -1 37 -22 37 -20 0 -25 -6 -28 -35z"/>
<path d="M2131 2298 c-1 -39 12 -51 23 -22 8 22 8 26 -3 19 -5 -3 -12 5 -14
17 -3 15 -5 9 -6 -14z"/>
<path d="M2166 2322 c-3 -5 -1 -22 4 -38 8 -29 8 -29 9 9 1 36 -3 45 -13 29z"/>
<path d="M2201 2312 c0 -13 6 -25 17 -29 9 -4 20 -11 24 -17 4 -6 7 7 6 29 0
23 -3 30 -5 18 -2 -13 -11 -23 -18 -23 -7 0 -16 10 -18 23 l-4 22 -2 -23z"/>
<path d="M2262 2295 c0 -22 2 -32 5 -22 2 9 11 17 18 17 7 0 16 -8 18 -17 3
-10 5 0 5 22 0 22 -2 32 -5 23 -2 -10 -11 -18 -18 -18 -7 0 -16 8 -18 18 -3 9
-5 -1 -5 -23z"/>
<path d="M2334 2316 c-10 -26 0 -51 21 -51 16 0 20 7 20 30 0 33 -30 49 -41
21z m32 -32 c-5 -13 -10 -14 -18 -6 -6 6 -8 18 -4 28 5 13 10 14 18 6 6 -6 8
-18 4 -28z"/>
<path d="M2401 2296 c-1 -26 2 -37 9 -30 6 6 6 21 1 39 -9 30 -9 30 -10 -9z"/>
<path d="M2426 2314 c-8 -22 -8 -26 3 -19 5 3 12 -5 14 -17 3 -15 5 -9 6 15 1
38 -12 50 -23 21z"/>
<path d="M2001 2171 c-18 -32 26 -70 45 -40 4 8 0 9 -15 4 -17 -5 -21 -2 -21
18 0 20 5 24 30 24 27 0 30 -4 31 -31 l2 -31 4 30 c3 16 10 33 16 37 7 4 -10
7 -36 6 -33 0 -50 -5 -56 -17z"/>
<path d="M2110 2143 c0 -27 4 -43 8 -38 14 19 51 35 57 25 3 -6 17 -10 31 -10
22 0 25 4 22 33 -2 24 -8 33 -25 35 -13 2 -23 -1 -23 -7 0 -6 7 -8 15 -5 8 4
15 2 15 -4 0 -5 -9 -12 -20 -15 -13 -3 -21 1 -25 14 -4 12 -16 19 -31 19 -22
0 -24 -4 -24 -47z m40 12 c0 -14 -4 -25 -9 -25 -12 0 -19 21 -13 38 8 21 22
13 22 -13z m60 -15 c0 -5 -4 -10 -10 -10 -5 0 -10 5 -10 10 0 6 5 10 10 10 6
0 10 -4 10 -10z"/>
<path d="M2242 2155 c0 -22 2 -32 5 -22 2 9 11 17 18 17 7 0 16 -8 18 -17 3
-10 5 0 5 22 0 22 -2 32 -5 23 -2 -10 -11 -18 -18 -18 -7 0 -16 8 -18 18 -3 9
-5 -1 -5 -23z"/>
<path d="M2311 2158 c-1 -39 12 -51 23 -22 8 22 8 26 -3 19 -5 -3 -12 5 -14
17 -3 15 -5 9 -6 -14z"/>
<path d="M2346 2182 c-3 -5 -1 -22 4 -38 8 -29 8 -29 9 9 1 36 -3 45 -13 29z"/>
<path d="M2382 2158 c-2 -31 1 -38 17 -38 11 0 21 -6 24 -12 10 -29 16 2 8 43
-8 39 -9 41 -10 12 -1 -22 -6 -33 -15 -33 -9 0 -16 13 -19 33 -4 31 -4 31 -5
-5z"/>
<path d="M2451 2158 c-1 -36 0 -37 34 -36 33 1 35 3 35 35 0 18 -4 33 -10 33
-5 0 -10 -9 -10 -19 0 -24 -37 -17 -43 8 -3 9 -5 -1 -6 -21z m29 -18 c0 -5 -4
-10 -10 -10 -5 0 -10 5 -10 10 0 6 5 10 10 10 6 0 10 -4 10 -10z"/>
<path d="M3092 1843 l1 -48 4 43 c3 34 8 42 24 42 16 0 19 -7 19 -40 0 -22 5
-40 10 -40 6 0 10 20 10 45 0 45 0 45 -35 45 l-35 0 2 -47z"/>
<path d="M3177 1864 c-13 -13 -7 -55 9 -61 24 -9 51 23 38 45 -12 19 -36 27
-47 16z m33 -29 c0 -26 -14 -33 -25 -15 -9 14 1 40 15 40 5 0 10 -11 10 -25z"/>
<path d="M3238 1835 c-2 -19 0 -35 4 -35 4 0 8 14 8 30 0 42 27 40 33 -2 4
-32 4 -32 5 5 2 33 -1 37 -22 37 -20 0 -25 -6 -28 -35z"/>
<path d="M3311 1838 l-1 -37 48 2 c45 2 47 3 47 32 0 20 -5 31 -17 33 -10 2
-18 -1 -18 -7 0 -6 7 -8 15 -5 8 4 15 1 15 -5 0 -6 -6 -11 -12 -11 -9 0 -8 -3
2 -10 8 -5 12 -12 8 -15 -9 -9 -77 28 -81 45 -3 8 -5 -2 -6 -22z m29 -18 c0
-5 -4 -10 -10 -10 -5 0 -10 5 -10 10 0 6 5 10 10 10 6 0 10 -4 10 -10z"/>
<path d="M3427 1864 c-13 -13 -7 -55 9 -61 24 -9 51 23 38 45 -12 19 -36 27
-47 16z m33 -29 c0 -26 -14 -33 -25 -15 -9 14 1 40 15 40 5 0 10 -11 10 -25z"/>
<path d="M3490 1835 c0 -32 3 -36 23 -33 17 2 22 10 22 33 0 23 -5 31 -22 33
-20 3 -23 -1 -23 -33z m30 15 c0 -5 -4 -10 -10 -10 -5 0 -10 5 -10 10 0 6 5
10 10 10 6 0 10 -4 10 -10z m10 -30 c0 -5 -7 -10 -15 -10 -8 0 -15 5 -15 10 0
6 7 10 15 10 8 0 15 -4 15 -10z"/>
<path d="M3554 1859 c-4 -8 0 -9 15 -4 11 3 21 2 21 -3 0 -5 -9 -12 -20 -15
-29 -8 -26 -37 5 -37 22 0 25 4 25 35 0 28 -4 35 -19 35 -11 0 -23 -5 -27 -11z
m31 -39 c-3 -5 -10 -10 -16 -10 -5 0 -9 5 -9 10 0 6 7 10 16 10 8 0 12 -4 9
-10z"/>
<path d="M3617 1862 c6 -4 13 -21 16 -37 l4 -30 2 32 c0 17 7 34 14 36 6 3 -1
6 -18 6 -16 0 -25 -3 -18 -7z"/>
<path d="M3674 1856 c-13 -33 0 -51 39 -53 35 -2 37 0 37 27 0 17 5 30 10 30
6 0 10 -13 10 -30 0 -16 5 -30 10 -30 6 0 10 16 10 35 0 31 -3 35 -25 35 -21
0 -25 -5 -25 -28 0 -25 -4 -29 -30 -29 -16 0 -30 4 -30 9 0 4 9 8 21 8 14 0
19 5 17 17 -4 23 -36 29 -44 9z m31 -6 c3 -5 -1 -10 -9 -10 -9 0 -16 5 -16 10
0 6 4 10 9 10 6 0 13 -4 16 -10z"/>
<path d="M3801 1837 c-1 -34 2 -38 21 -35 29 4 35 28 10 35 -12 3 -23 12 -25
22 -3 9 -5 -1 -6 -22z m39 -17 c0 -5 -7 -10 -15 -10 -8 0 -15 5 -15 10 0 6 7
10 15 10 8 0 15 -4 15 -10z"/>
<path d="M3901 1835 c1 -40 1 -40 11 -12 7 21 7 32 -1 40 -8 8 -11 0 -10 -28z"/>
<path d="M3941 1853 c0 -10 4 -27 9 -38 7 -16 9 -13 9 18 1 20 -3 37 -9 37 -5
0 -10 -8 -9 -17z"/>
<path d="M3984 1856 c-10 -26 0 -51 21 -51 16 0 20 7 20 30 0 33 -30 49 -41
21z m32 -32 c-5 -13 -10 -14 -18 -6 -6 6 -8 18 -4 28 5 13 10 14 18 6 6 -6 8
-18 4 -28z"/>
<path d="M4049 1853 c7 -14 8 -24 1 -28 -5 -3 -10 -11 -10 -18 0 -6 7 -2 15 9
14 19 14 19 15 -1 l1 -20 9 20 c7 18 8 19 15 3 4 -10 12 -18 18 -18 6 0 1 10
-10 23 -11 12 -23 29 -26 37 -4 11 -6 10 -6 -4 -1 -20 -1 -20 -17 0 -15 18
-15 18 -5 -3z"/>
<path d="M4095 1859 c-11 -17 1 -21 15 -4 8 9 8 15 2 15 -6 0 -14 -5 -17 -11z"/>
<path d="M4129 1854 c-23 -28 19 -70 44 -44 9 10 7 11 -10 5 -14 -4 -23 -2
-23 4 0 6 9 11 20 11 11 0 20 7 20 15 0 29 19 15 23 -17 l4 -33 1 32 c1 21 8
33 20 36 9 3 -7 5 -35 4 -32 0 -57 -5 -64 -13z m36 -4 c3 -5 -1 -10 -9 -10 -9
0 -16 5 -16 10 0 6 4 10 9 10 6 0 13 -4 16 -10z"/>
<path d="M4282 1833 c1 -37 1 -37 5 -5 5 40 23 42 23 2 0 -16 5 -30 10 -30 6
0 10 16 10 35 0 31 -3 35 -25 35 -23 0 -25 -4 -23 -37z"/>
<path d="M4344 1856 c-10 -26 1 -51 24 -54 12 -2 22 1 22 7 0 6 -6 8 -14 5 -8
-3 -17 -1 -21 5 -4 7 4 11 20 11 23 0 24 2 15 20 -12 23 -38 26 -46 6z m36 -6
c0 -5 -7 -10 -16 -10 -8 0 -12 5 -9 10 3 6 10 10 16 10 5 0 9 -4 9 -10z"/>
<path d="M4410 1823 c0 -26 4 -43 8 -37 4 6 15 13 25 17 27 10 19 61 -10 65
-21 3 -23 -1 -23 -45z m36 1 c-5 -13 -10 -14 -18 -6 -6 6 -8 18 -4 28 5 13 10
14 18 6 6 -6 8 -18 4 -28z"/>
<path d="M4474 1856 c-12 -31 1 -51 31 -52 17 0 36 4 44 10 10 8 15 8 18 -1 3
-7 9 -13 15 -13 6 0 6 6 -2 15 -6 8 -9 24 -5 37 5 19 4 20 -5 8 -9 -11 -13
-12 -17 -2 -2 6 -9 12 -15 12 -6 0 -6 -6 2 -15 6 -8 10 -20 8 -26 -5 -15 -56
-21 -63 -8 -4 5 6 9 20 9 21 0 26 4 21 16 -3 9 -6 18 -6 20 0 11 -41 2 -46
-10z m36 -6 c0 -5 -4 -10 -10 -10 -5 0 -10 5 -10 10 0 6 5 10 10 10 6 0 10 -4
10 -10z"/>
<path d="M4601 1852 c-13 -25 9 -58 33 -49 11 4 16 1 17 -11 0 -10 3 -12 6 -4
2 6 15 12 28 12 13 0 26 -6 29 -12 4 -7 4 -2 1 12 -2 14 -5 35 -5 48 0 15 -6
22 -20 22 -15 0 -20 -7 -20 -24 0 -35 -18 -42 -22 -9 -4 33 -32 42 -47 15z
m34 -17 c0 -10 -6 -20 -12 -22 -8 -3 -13 5 -13 22 0 17 5 25 13 23 6 -3 12
-13 12 -23z m65 0 c0 -14 -6 -25 -14 -25 -9 0 -12 8 -8 25 2 14 8 25 13 25 5
0 9 -11 9 -25z"/>
<path d="M4731 1838 c-1 -39 12 -51 23 -22 8 22 8 26 -3 19 -5 -3 -12 5 -14
17 -3 15 -5 9 -6 -14z"/>
<path d="M4766 1862 c-3 -5 -1 -22 4 -38 8 -29 8 -29 9 9 1 36 -3 45 -13 29z"/>
<path d="M4797 1862 c6 -4 13 -21 16 -37 l4 -30 2 33 c1 43 31 45 31 2 0 -25
4 -30 25 -30 18 0 25 5 25 20 0 13 -7 20 -20 20 -11 0 -20 7 -20 15 0 11 -11
15 -37 15 -21 0 -33 -4 -26 -8z m93 -42 c0 -5 -7 -10 -15 -10 -8 0 -15 5 -15
10 0 6 7 10 15 10 8 0 15 -4 15 -10z"/>
<path d="M4952 1835 c0 -22 2 -32 5 -22 2 9 11 17 18 17 7 0 16 -8 18 -17 3
-10 5 0 5 22 0 22 -2 32 -5 23 -2 -10 -11 -18 -18 -18 -7 0 -16 8 -18 18 -3 9
-5 -1 -5 -23z"/>
<path d="M5020 1861 c0 -6 7 -8 15 -5 8 4 15 2 15 -4 0 -5 -9 -12 -21 -15 -29
-8 -19 -31 15 -35 26 -3 27 -1 24 30 -2 25 -8 34 -25 36 -13 2 -23 -1 -23 -7z
m30 -41 c0 -5 -4 -10 -10 -10 -5 0 -10 5 -10 10 0 6 5 10 10 10 6 0 10 -4 10
-10z"/>
<path d="M3920 1815 c0 -8 5 -15 10 -15 6 0 10 7 10 15 0 8 -4 15 -10 15 -5 0
-10 -7 -10 -15z"/>
<path d="M3142 1738 c-28 -28 -2 -88 33 -74 24 9 19 57 -7 64 -23 6 -23 6 2
13 21 6 22 7 5 8 -12 1 -26 -4 -33 -11z m35 -34 c8 -22 -15 -44 -26 -25 -10
16 -4 41 10 41 5 0 12 -7 16 -16z"/>
<path d="M4554 1736 c-3 -8 -4 -27 -2 -43 4 -33 41 -45 52 -17 10 27 -3 54
-27 55 -17 1 -15 3 8 9 l30 8 -28 1 c-15 0 -30 -5 -33 -13z m39 -29 c3 -8 1
-20 -4 -28 -11 -19 -34 3 -26 25 8 20 23 21 30 3z"/>
<path d="M2978 1695 c-2 -19 0 -35 4 -35 4 0 8 14 8 30 0 42 27 40 33 -2 4
-32 4 -32 5 5 2 33 -1 37 -22 37 -20 0 -25 -6 -28 -35z"/>
<path d="M3052 1695 c0 -22 2 -32 5 -22 4 17 5 17 17 1 18 -24 46 -11 46 21 0
32 -28 45 -46 21 -12 -16 -13 -16 -17 1 -3 10 -5 0 -5 -22z m58 0 c0 -26 -14
-33 -25 -15 -9 14 1 40 15 40 5 0 10 -11 10 -25z"/>
<path d="M3201 1720 c0 -8 4 -24 8 -35 5 -12 4 -26 -3 -34 -8 -11 -8 -13 3
-10 8 3 20 22 28 44 14 42 9 63 -6 24 l-9 -24 -10 25 c-6 14 -11 18 -11 10z"/>
<path d="M3261 1695 c0 -29 3 -35 8 -20 7 18 8 18 18 1 16 -29 48 -16 48 19 0
35 -32 48 -48 19 -10 -17 -11 -17 -18 1 -5 15 -8 9 -8 -20z m64 0 c0 -10 -6
-20 -12 -22 -8 -3 -13 5 -13 22 0 17 5 25 13 23 6 -3 12 -13 12 -23z"/>
<path d="M3391 1696 c-1 -26 2 -37 9 -30 6 6 6 21 1 39 -9 30 -9 30 -10 -9z"/>
<path d="M3416 1714 c-8 -22 -8 -26 3 -19 5 3 12 -5 14 -17 3 -15 5 -9 6 15 1
38 -12 50 -23 21z"/>
<path d="M3455 1720 c-3 -6 1 -7 9 -4 9 3 16 2 16 -4 0 -6 -6 -13 -12 -15 -10
-4 -10 -6 0 -6 6 -1 12 -6 12 -12 0 -6 -7 -9 -15 -5 -8 3 -15 1 -15 -4 0 -6 9
-10 20 -10 16 0 20 7 20 35 0 34 -20 49 -35 25z"/>
<path d="M3540 1719 c0 -4 6 -6 14 -3 8 3 17 1 21 -5 3 -6 0 -11 -7 -11 -10 0
-10 -2 1 -9 9 -6 10 -11 2 -15 -6 -4 -15 -4 -21 -1 -5 3 -10 1 -10 -5 0 -6 10
-10 23 -8 16 2 23 11 25 31 5 37 20 34 25 -5 l4 -33 1 33 c3 43 32 45 32 2 0
-16 5 -30 10 -30 6 0 10 2 10 4 0 2 3 12 7 22 4 12 3 15 -5 10 -8 -5 -12 0
-12 13 0 18 -6 20 -60 20 -33 -1 -60 -5 -60 -10z"/>
<path d="M3686 1722 c-3 -5 -1 -22 4 -38 8 -29 8 -29 9 9 1 36 -3 45 -13 29z"/>
<path d="M3720 1722 c0 -6 5 -14 11 -17 7 -5 4 -14 -7 -26 -9 -10 -12 -19 -6
-19 6 0 12 6 15 13 3 9 8 8 22 -3 17 -14 18 -14 6 8 -10 18 -10 27 0 38 8 10
8 14 0 14 -6 0 -11 -5 -11 -11 0 -8 -5 -8 -15 1 -9 8 -15 9 -15 2z"/>
<path d="M3814 1706 c-3 -14 -3 -30 1 -35 8 -14 45 -14 45 -1 0 5 -7 7 -15 4
-11 -5 -15 1 -15 21 0 20 4 26 15 21 8 -3 15 -1 15 4 0 22 -40 9 -46 -14z"/>
<path d="M3877 1722 c6 -4 13 -21 16 -37 l4 -30 2 32 c0 17 7 34 14 36 6 3 -1
6 -18 6 -16 0 -25 -3 -18 -7z"/>
<path d="M3930 1683 c0 -26 4 -43 8 -37 4 6 15 13 25 17 27 10 19 61 -10 65
-21 3 -23 -1 -23 -45z m36 1 c-5 -13 -10 -14 -18 -6 -6 6 -8 18 -4 28 5 13 10
14 18 6 6 -6 8 -18 4 -28z"/>
<path d="M4000 1721 c0 -6 7 -8 15 -5 8 4 15 2 15 -4 0 -5 -9 -12 -21 -15 -29
-8 -19 -31 15 -35 26 -3 27 -1 24 30 -2 25 -8 34 -25 36 -13 2 -23 -1 -23 -7z
m30 -41 c0 -5 -4 -10 -10 -10 -5 0 -10 5 -10 10 0 6 5 10 10 10 6 0 10 -4 10
-10z"/>
<path d="M4062 1695 c0 -22 2 -32 5 -22 2 9 11 17 18 17 7 0 16 -8 18 -17 3
-10 5 0 5 22 0 22 -2 32 -5 23 -2 -10 -11 -18 -18 -18 -7 0 -16 8 -18 18 -3 9
-5 -1 -5 -23z"/>
<path d="M4131 1696 c-1 -26 2 -37 9 -30 6 6 6 21 1 39 -9 30 -9 30 -10 -9z"/>
<path d="M4156 1714 c-8 -22 -8 -26 3 -19 5 3 12 -5 14 -17 3 -15 5 -9 6 15 1
38 -12 50 -23 21z"/>
<path d="M4202 1698 c-2 -31 1 -38 17 -38 11 0 21 -6 24 -12 10 -29 16 2 8 43
-8 39 -9 41 -10 12 -1 -22 -6 -33 -15 -33 -9 0 -16 13 -19 33 -4 31 -4 31 -5
-5z"/>
<path d="M4307 1723 c-4 -3 -7 -17 -7 -30 0 -27 26 -41 43 -23 9 10 7 11 -10
5 -20 -5 -23 -3 -23 20 0 22 3 25 21 20 15 -5 19 -4 15 4 -8 12 -29 15 -39 4z"/>
<path d="M4400 1701 c0 -16 -6 -32 -12 -34 -8 -3 -6 -6 5 -6 12 -1 17 7 17 29
0 17 5 30 10 30 6 0 10 -13 10 -30 0 -16 5 -30 10 -30 6 0 10 16 10 35 0 31
-3 35 -25 35 -21 0 -25 -5 -25 -29z"/>
<path d="M4461 1695 c0 -29 3 -35 8 -20 7 18 8 18 18 1 16 -29 48 -16 48 19 0
35 -32 48 -48 19 -10 -17 -11 -17 -18 1 -5 15 -8 9 -8 -20z m64 0 c0 -10 -6
-20 -12 -22 -8 -3 -13 5 -13 22 0 17 5 25 13 23 6 -3 12 -13 12 -23z"/>
<path d="M4627 1724 c-13 -13 -7 -55 9 -61 24 -9 51 23 38 45 -12 19 -36 27
-47 16z m33 -29 c0 -26 -14 -33 -25 -15 -9 14 1 40 15 40 5 0 10 -11 10 -25z"/>
<path d="M4691 1693 c2 -35 2 -35 6 -8 3 16 10 33 16 37 8 5 6 8 -5 8 -14 0
-18 -8 -17 -37z"/>
<path d="M4734 1716 c-10 -26 0 -51 21 -51 16 0 20 7 20 30 0 33 -30 49 -41
21z m32 -32 c-5 -13 -10 -14 -18 -6 -6 6 -8 18 -4 28 5 13 10 14 18 6 6 -6 8
-18 4 -28z"/>
<path d="M4831 1693 c0 -31 2 -34 9 -18 7 17 9 17 9 3 1 -17 21 -26 21 -10 0
15 -25 62 -32 62 -5 0 -8 -17 -7 -37z"/>
<path d="M4875 1720 c-8 -12 5 -60 16 -60 5 0 9 16 9 35 0 33 -12 46 -25 25z"/>
<path d="M4914 1716 c-10 -26 1 -51 24 -54 12 -2 22 1 22 7 0 6 -6 8 -14 5 -8
-3 -17 -1 -21 5 -4 7 4 11 20 11 23 0 24 2 15 20 -12 23 -38 26 -46 6z m36 -6
c0 -5 -7 -10 -16 -10 -8 0 -12 5 -9 10 3 6 10 10 16 10 5 0 9 -4 9 -10z"/>
<path d="M4986 1722 c-4 -3 -6 -16 -6 -29 0 -27 26 -41 43 -23 9 10 7 11 -10
5 -19 -5 -23 -3 -23 18 0 20 5 24 29 24 26 0 31 -5 34 -31 l4 -31 1 32 c2 29
5 31 37 30 38 -1 46 -12 15 -20 -29 -8 -26 -37 5 -37 22 0 25 4 25 34 l0 34
-74 0 c-41 0 -77 -3 -80 -6z m139 -42 c-3 -5 -10 -10 -16 -10 -5 0 -9 5 -9 10
0 6 7 10 16 10 8 0 12 -4 9 -10z"/>
<path d="M5161 1654 c0 -11 3 -14 6 -6 3 7 2 16 -1 19 -3 4 -6 -2 -5 -13z"/>
<path d="M3151 1558 c-1 -39 12 -51 23 -22 8 22 8 26 -3 19 -5 -3 -12 5 -14
17 -3 15 -5 9 -6 -14z"/>
<path d="M3186 1582 c-3 -5 -1 -22 4 -38 8 -29 8 -29 9 9 1 36 -3 45 -13 29z"/>
<path d="M3227 1583 c-4 -3 -7 -17 -7 -30 0 -26 25 -42 42 -25 7 7 4 10 -8 9
-13 -1 -19 5 -19 18 0 13 6 20 17 19 10 -1 15 2 12 7 -6 11 -28 12 -37 2z"/>
<path d="M3282 1553 c1 -37 1 -37 5 -5 3 18 10 32 18 32 8 0 15 -14 18 -32 4
-32 4 -32 5 5 2 33 0 37 -23 37 -23 0 -25 -4 -23 -37z"/>
<path d="M3352 1573 c-16 -29 3 -51 43 -51 32 0 35 3 35 29 0 16 5 29 10 29 6
0 10 -13 10 -30 0 -16 5 -30 10 -30 6 0 10 16 10 35 0 31 -3 35 -25 35 -21 0
-25 -5 -25 -30 0 -38 -18 -40 -22 -3 -4 33 -32 42 -46 16z m33 -18 c0 -10 -6
-20 -12 -22 -8 -3 -13 5 -13 22 0 17 5 25 13 23 6 -3 12 -13 12 -23z"/>
<path d="M3481 1557 c-1 -34 2 -38 21 -35 29 4 35 28 10 35 -12 3 -23 12 -25
22 -3 9 -5 -1 -6 -22z m39 -17 c0 -5 -7 -10 -15 -10 -8 0 -15 5 -15 10 0 6 7
10 15 10 8 0 15 -4 15 -10z"/>
<path d="M3545 1580 c-3 -5 0 -7 8 -4 10 4 15 -2 15 -21 0 -18 -5 -25 -14 -21
-8 3 -14 1 -14 -4 0 -12 37 -13 43 -2 3 4 3 19 0 35 -5 27 -26 36 -38 17z"/>
<path d="M3596 1568 c5 -13 8 -33 9 -45 0 -13 1 -23 3 -23 6 0 32 69 31 82 0
7 -5 2 -11 -12 l-10 -25 -9 23 c-4 12 -11 22 -14 22 -4 0 -3 -10 1 -22z"/>
<path d="M3655 1581 c-3 -5 -1 -12 5 -16 7 -4 7 -13 -1 -28 -9 -20 -9 -20 4
-4 17 21 27 22 27 2 0 -8 5 -15 10 -15 6 0 10 16 10 35 0 30 -3 35 -24 35 -14
0 -27 -4 -31 -9z m35 -11 c0 -5 -4 -10 -10 -10 -5 0 -10 5 -10 10 0 6 5 10 10
10 6 0 10 -4 10 -10z"/>
<path d="M3750 1555 c0 -31 3 -35 25 -35 22 0 25 4 25 35 0 31 -3 35 -25 35
-22 0 -25 -4 -25 -35z m40 15 c0 -5 -7 -10 -15 -10 -8 0 -15 5 -15 10 0 6 7
10 15 10 8 0 15 -4 15 -10z m0 -30 c0 -5 -7 -10 -15 -10 -8 0 -15 5 -15 10 0
6 7 10 15 10 8 0 15 -4 15 -10z"/>
<path d="M3820 1576 c-24 -30 17 -73 43 -46 9 10 7 11 -10 5 -14 -4 -23 -2
-23 4 0 6 9 11 21 11 14 0 19 5 17 17 -4 23 -31 28 -48 9z m35 -6 c3 -5 -1
-10 -9 -10 -9 0 -16 5 -16 10 0 6 4 10 9 10 6 0 13 -4 16 -10z"/>
<path d="M3880 1545 c0 -25 5 -45 10 -45 6 0 10 5 10 10 0 6 6 10 14 10 17 0
28 27 21 51 -4 12 -16 19 -31 19 -22 0 -24 -4 -24 -45z m40 10 c0 -14 -4 -25
-10 -25 -5 0 -10 11 -10 25 0 14 5 25 10 25 6 0 10 -11 10 -25z"/>
<path d="M3952 1571 c9 -15 9 -23 -3 -38 -13 -17 -13 -17 5 -3 15 11 20 12 23
3 3 -7 9 -13 15 -13 6 0 6 6 -2 15 -6 8 -9 24 -5 37 5 19 4 20 -5 8 -9 -11
-13 -12 -17 -2 -2 6 -9 12 -14 12 -5 0 -4 -9 3 -19z"/>
<path d="M4012 1555 c0 -22 2 -32 5 -22 2 9 11 17 18 17 7 0 16 -8 18 -17 3
-10 5 0 5 22 0 22 -2 32 -5 23 -2 -10 -11 -18 -18 -18 -7 0 -16 8 -18 18 -3 9
-5 -1 -5 -23z"/>
<path d="M4074 1576 c-15 -39 23 -74 50 -46 8 9 6 11 -11 6 -12 -4 -24 -2 -28
4 -4 6 5 10 20 10 21 0 26 4 21 16 -3 9 -6 18 -6 20 0 11 -41 2 -46 -10z m36
-6 c0 -5 -4 -10 -10 -10 -5 0 -10 5 -10 10 0 6 5 10 10 10 6 0 10 -4 10 -10z"/>
<path d="M4144 1576 c-10 -26 1 -51 24 -54 12 -2 22 1 22 7 0 6 -6 8 -14 5 -8
-3 -17 -1 -21 5 -4 7 4 11 20 11 23 0 24 2 15 20 -12 23 -38 26 -46 6z m36 -6
c0 -5 -7 -10 -16 -10 -8 0 -12 5 -9 10 3 6 10 10 16 10 5 0 9 -4 9 -10z"/>
<path d="M4241 1558 c-1 -39 12 -51 23 -22 8 22 8 26 -3 19 -5 -3 -12 5 -14
17 -3 15 -5 9 -6 -14z"/>
<path d="M4276 1582 c-3 -5 -1 -22 4 -38 8 -29 8 -29 9 9 1 36 -3 45 -13 29z"/>
<path d="M4350 1561 c0 -16 -6 -32 -12 -34 -8 -3 -6 -6 5 -6 12 -1 17 7 17 29
0 17 5 30 10 30 6 0 10 -13 10 -30 0 -16 5 -30 10 -30 6 0 10 16 10 35 0 31
-3 35 -25 35 -21 0 -25 -5 -25 -29z"/>
<path d="M4414 1576 c-10 -26 1 -51 24 -54 12 -2 22 1 22 7 0 6 -6 8 -14 5 -8
-3 -17 -1 -21 5 -4 7 4 11 20 11 23 0 24 2 15 20 -12 23 -38 26 -46 6z m36 -6
c0 -5 -7 -10 -16 -10 -8 0 -12 5 -9 10 3 6 10 10 16 10 5 0 9 -4 9 -10z"/>
<path d="M4480 1555 c0 -32 3 -36 23 -33 17 2 22 10 22 33 0 23 -5 31 -22 33
-20 3 -23 -1 -23 -33z m30 15 c0 -5 -4 -10 -10 -10 -5 0 -10 5 -10 10 0 6 5
10 10 10 6 0 10 -4 10 -10z m10 -30 c0 -5 -7 -10 -15 -10 -8 0 -15 5 -15 10 0
6 7 10 15 10 8 0 15 -4 15 -10z"/>
<path d="M4547 1584 c-13 -13 -7 -55 9 -61 24 -9 51 23 38 45 -12 19 -36 27
-47 16z m33 -29 c0 -26 -14 -33 -25 -15 -9 14 1 40 15 40 5 0 10 -11 10 -25z"/>
<path d="M4617 1584 c-4 -4 -7 -18 -7 -31 0 -27 26 -41 43 -23 9 10 7 11 -10
5 -14 -4 -23 -2 -23 4 0 6 9 11 21 11 14 0 19 5 17 17 -3 19 -29 29 -41 17z
m28 -14 c3 -5 -1 -10 -9 -10 -9 0 -16 5 -16 10 0 6 4 10 9 10 6 0 13 -4 16
-10z"/>
<path d="M4711 1553 c0 -31 2 -34 9 -18 7 17 9 17 9 3 1 -17 21 -26 21 -10 0
15 -25 62 -32 62 -5 0 -8 -17 -7 -37z"/>
<path d="M4755 1580 c-8 -12 5 -60 16 -60 5 0 9 16 9 35 0 33 -12 46 -25 25z"/>
<path d="M4794 1576 c-10 -26 1 -51 24 -54 12 -2 22 1 22 7 0 6 -6 8 -14 5 -8
-3 -17 -1 -21 5 -4 7 4 11 20 11 23 0 24 2 15 20 -12 23 -38 26 -46 6z m36 -6
c0 -5 -7 -10 -16 -10 -8 0 -12 5 -9 10 3 6 10 10 16 10 5 0 9 -4 9 -10z"/>
<path d="M4862 1555 c0 -22 2 -32 5 -22 5 21 23 23 23 2 0 -8 5 -15 10 -15 6
0 10 16 10 35 0 19 -4 35 -10 35 -5 0 -10 -7 -10 -15 0 -21 -18 -19 -23 3 -3
9 -5 -1 -5 -23z"/>
<path d="M4922 1555 c0 -22 2 -32 5 -22 6 21 12 22 28 0 17 -23 45 -9 45 22 0
31 -28 45 -45 22 -16 -22 -22 -21 -28 1 -3 9 -5 -1 -5 -23z m63 0 c0 -10 -6
-20 -12 -22 -8 -3 -13 5 -13 22 0 17 5 25 13 23 6 -3 12 -13 12 -23z"/>
</g>
</svg>
