<?xml version="1.0" standalone="no"?>
<!DOCTYPE svg PUBLIC "-//W3C//DTD SVG 20010904//EN"
 "http://www.w3.org/TR/2001/REC-SVG-20010904/DTD/svg10.dtd">
<svg version="1.0" xmlns="http://www.w3.org/2000/svg"
 width="980.000000pt" height="980.000000pt" viewBox="0 0 980.000000 980.000000"
 preserveAspectRatio="xMidYMid meet">
<metadata>
Created by potrace 1.15, written by Peter Selinger 2001-2017
</metadata>
<g transform="translate(0.000000,980.000000) scale(0.100000,-0.100000)"
fill="#000000" stroke="none">
<path d="M4570 9789 c-627 -45 -1217 -203 -1785 -478 -229 -111 -354 -183
-585 -336 -735 -488 -1325 -1165 -1711 -1960 -415 -857 -568 -1788 -449 -2732
205 -1606 1227 -3036 2695 -3770 1077 -539 2313 -657 3474 -332 856 240 1657
730 2264 1384 785 847 1242 1897 1316 3030 122 1842 -845 3624 -2471 4557
-597 342 -1235 549 -1928 623 -174 19 -646 27 -820 14z m570 -399 c991 -57
1900 -416 2655 -1049 127 -106 390 -366 502 -495 955 -1107 1315 -2584 973
-3991 -169 -695 -501 -1333 -980 -1878 -101 -116 -415 -427 -430 -427 -4 0
-10 60 -13 133 -24 537 -228 1090 -569 1544 -393 523 -915 899 -1531 1103 -54
17 -97 33 -95 35 2 2 45 21 96 44 531 230 933 748 1056 1362 180 888 -258
1773 -1067 2159 -545 260 -1169 254 -1707 -15 -558 -280 -942 -799 -1051
-1420 -29 -166 -31 -446 -5 -600 75 -443 278 -831 597 -1140 160 -155 285
-244 475 -339 l105 -53 -158 -52 c-592 -193 -1098 -555 -1468 -1046 -342 -455
-550 -1023 -572 -1562 -3 -84 -10 -153 -14 -153 -4 0 -87 77 -184 171 -249
244 -433 463 -609 728 -878 1321 -985 3006 -281 4436 311 630 765 1178 1332
1608 839 635 1895 957 2943 897z"/>
</g>
</svg>
