<?xml version="1.0" standalone="no"?>
<!DOCTYPE svg PUBLIC "-//W3C//DTD SVG 20010904//EN"
 "http://www.w3.org/TR/2001/REC-SVG-20010904/DTD/svg10.dtd">
<svg version="1.0" xmlns="http://www.w3.org/2000/svg"
 width="1920.000000pt" height="1080.000000pt" viewBox="0 0 1920.000000 1080.000000"
 preserveAspectRatio="xMidYMid meet">

<g transform="translate(0.000000,1080.000000) scale(0.100000,-0.100000)"
fill="#000000" stroke="none">
<path d="M3928 8535 c-420 -58 -758 -251 -958 -549 -64 -96 -109 -192 -154
-328 -62 -185 -71 -265 -70 -603 1 -330 10 -465 54 -750 41 -267 54 -463 47
-695 -8 -240 -21 -366 -53 -523 -51 -252 -97 -384 -176 -508 -72 -112 -148
-163 -239 -162 -177 3 -334 187 -403 473 -126 519 20 1222 371 1783 42 67 111
168 154 225 44 57 79 105 79 107 0 8 -165 55 -246 71 -44 8 -133 15 -199 15
-317 0 -608 -160 -808 -443 -86 -120 -172 -313 -213 -476 -108 -426 -50 -905
153 -1265 95 -169 243 -325 408 -432 142 -93 248 -138 415 -177 124 -29 426
-36 576 -14 320 47 569 165 772 367 94 93 157 182 227 324 106 212 144 382
152 675 7 228 -4 364 -65 809 l-47 346 1 335 c0 295 3 352 22 475 76 481 235
761 470 824 83 23 153 -18 189 -109 13 -36 17 -76 17 -195 0 -188 -27 -322
-114 -580 -133 -392 -320 -719 -461 -804 -28 -17 -30 -20 -13 -29 39 -19 183
-52 272 -61 341 -35 702 150 904 464 127 196 182 381 181 605 -1 234 -64 398
-211 553 -135 141 -286 217 -506 252 -113 18 -393 18 -528 0z"/>
<path d="M9855 6734 c-269 -35 -496 -67 -503 -72 -7 -4 -56 -90 -108 -192
-308 -600 -459 -848 -726 -1191 -199 -255 -388 -432 -489 -459 -64 -18 -109 7
-109 60 0 46 58 194 135 345 64 125 106 204 300 555 29 52 85 156 125 230 40
74 117 218 172 320 56 102 134 246 174 320 49 90 69 136 60 138 -13 3 -1021
-125 -1042 -133 -13 -4 -85 -121 -164 -265 -399 -728 -564 -1055 -645 -1277
-28 -76 -79 -143 -226 -297 -177 -185 -309 -264 -393 -236 -44 14 -53 48 -32
128 26 102 164 390 346 722 62 113 186 347 277 520 91 173 189 358 218 410 29
52 72 133 95 180 23 47 63 120 87 163 25 43 43 81 39 84 -3 3 -220 -22 -483
-56 -263 -34 -487 -61 -498 -61 -11 0 -55 18 -98 39 -129 65 -192 76 -422 76
-167 0 -218 -4 -311 -23 -755 -152 -1435 -843 -1593 -1619 -86 -422 81 -758
414 -828 102 -21 282 -19 380 4 171 42 337 144 503 310 l107 107 -3 -81 c-8
-188 85 -298 287 -341 88 -18 316 -18 406 1 285 61 558 233 770 488 l80 96 6
-72 c13 -155 99 -242 289 -294 53 -15 104 -18 280 -17 206 0 219 1 305 28 120
37 195 73 297 146 80 57 211 182 271 260 26 33 -57 -136 -180 -370 -413 -780
-855 -1344 -1117 -1426 -68 -21 -101 -9 -115 43 -15 52 -14 91 5 179 72 351
371 800 612 917 23 12 42 24 42 28 0 9 -192 64 -300 86 -120 24 -365 24 -480
0 -106 -23 -240 -73 -317 -118 -80 -47 -221 -190 -259 -264 -40 -76 -70 -170
-84 -260 -40 -255 118 -521 383 -645 140 -66 195 -74 487 -74 438 0 688 50
970 195 438 225 792 662 1290 1589 183 340 227 424 352 660 75 140 193 363
263 495 131 245 425 808 425 812 0 8 -105 -4 -555 -63z m-3530 -151 c13 -4 7
-22 -31 -92 -88 -163 -197 -367 -324 -606 -304 -574 -578 -993 -772 -1181 -45
-45 -99 -89 -118 -99 -72 -37 -165 -14 -191 47 -21 49 -16 206 10 304 152 586
711 1377 1116 1579 110 55 240 76 310 48z"/>
<path d="M11207 6721 l-498 -66 -90 -170 c-94 -176 -192 -361 -409 -770 -70
-132 -145 -274 -167 -315 -22 -41 -105 -196 -183 -345 -78 -148 -171 -322
-205 -385 -94 -174 -195 -367 -195 -374 0 -3 224 -6 498 -6 l497 0 28 53 c16
28 96 180 179 337 83 157 210 398 283 535 371 701 676 1144 839 1216 45 20 86
18 114 -4 17 -14 15 -66 -7 -128 -38 -109 -127 -283 -408 -794 -66 -121 -175
-326 -243 -455 -67 -129 -162 -307 -210 -395 -136 -251 -190 -352 -190 -359 0
-3 225 -6 499 -6 l500 0 77 148 c42 81 103 192 134 247 84 147 189 344 360
675 203 391 336 613 485 810 164 215 264 295 339 270 19 -6 37 -18 40 -26 36
-93 -66 -317 -463 -1027 -119 -213 -218 -416 -257 -532 -34 -100 -38 -120 -38
-220 -1 -105 0 -112 30 -165 67 -118 167 -160 399 -167 177 -6 280 10 420 63
190 74 332 170 500 339 66 66 142 151 170 188 l49 68 12 -70 c27 -159 78 -255
199 -376 73 -74 106 -99 175 -133 92 -45 193 -74 315 -91 109 -16 362 -13 484
4 507 72 1042 377 1395 795 77 91 151 194 123 171 -9 -7 -54 -52 -100 -98
-134 -138 -334 -311 -487 -420 -299 -213 -537 -305 -861 -333 -268 -23 -372
23 -414 185 -19 74 -19 132 -1 228 28 144 33 157 66 157 39 0 281 45 410 76
811 197 1466 696 1539 1172 39 254 -121 459 -417 535 -79 20 -111 22 -332 22
-208 -1 -263 -4 -365 -23 -240 -43 -399 -97 -625 -212 -359 -183 -641 -431
-853 -750 -144 -217 -257 -515 -257 -679 0 -32 -13 -52 -113 -167 -186 -212
-353 -349 -458 -374 -43 -10 -53 -10 -75 5 -23 15 -26 22 -22 59 6 53 59 176
130 303 30 54 75 134 100 178 24 44 80 141 123 215 43 74 112 194 153 265 370
640 362 1024 -25 1151 -84 28 -97 29 -263 29 -197 0 -253 -11 -375 -72 -128
-64 -279 -195 -380 -328 l-38 -50 6 52 c8 69 -8 164 -38 222 -70 137 -210 188
-494 178 -168 -6 -245 -22 -365 -76 -79 -36 -195 -114 -289 -194 -40 -34 -67
-55 -61 -47 7 8 48 84 92 168 l80 152 -37 -1 c-20 -1 -260 -31 -534 -68z
m5011 -47 c59 -41 -7 -279 -149 -538 -240 -436 -613 -848 -894 -985 -44 -22
-103 -46 -132 -55 l-52 -15 21 57 c35 95 140 311 218 448 296 518 701 1006
902 1086 54 21 59 21 86 2z"/>
<path d="M9930 3881 c-48 -15 -87 -40 -122 -79 -55 -60 -64 -98 -59 -242 9
-275 7 -363 -12 -411 -24 -64 -50 -86 -82 -71 -43 20 -60 67 -60 167 0 108 27
204 80 284 40 61 37 70 -23 78 -122 16 -220 -90 -230 -249 -8 -136 49 -248
151 -297 89 -43 228 -21 300 47 60 56 72 95 72 227 0 66 -4 165 -9 220 -12
148 15 266 71 302 77 51 69 -116 -13 -267 -15 -28 -31 -50 -36 -50 -4 0 -8 -4
-8 -9 0 -16 86 -24 123 -12 19 7 52 28 72 48 98 95 90 249 -16 303 -40 21
-147 26 -199 11z"/>
<path d="M10403 3867 l-73 -10 -206 -404 c-113 -223 -203 -407 -200 -410 2 -3
49 1 103 8 l98 14 60 115 c71 135 132 227 175 264 72 60 67 19 -20 -154 -79
-156 -89 -201 -51 -232 53 -42 163 -15 235 57 20 19 37 35 39 35 3 0 7 -14 11
-30 3 -17 17 -42 30 -55 45 -44 149 -31 214 28 19 18 22 18 22 4 0 -59 108
-77 196 -32 59 30 57 30 44 6 -5 -11 -10 -22 -10 -25 0 -3 44 -6 98 -6 l97 0
90 177 c90 177 121 225 156 244 38 20 38 -3 0 -80 -52 -103 -60 -142 -32 -170
30 -30 112 -29 173 2 l46 23 4 -58 c7 -101 71 -144 202 -136 108 7 217 66 292
158 22 26 12 20 -40 -24 -87 -73 -155 -106 -221 -106 -59 0 -75 12 -75 54 0
44 8 51 75 65 170 37 315 152 315 248 0 80 -46 107 -169 101 -72 -3 -97 -9
-153 -37 -77 -38 -158 -115 -196 -187 -25 -45 -73 -84 -80 -65 -2 5 16 47 39
93 71 142 55 198 -60 198 -38 0 -66 -6 -89 -20 -41 -25 -45 -25 -32 0 13 24
18 24 -106 8 l-96 -11 -80 -161 c-44 -89 -94 -178 -110 -199 -35 -44 -83 -73
-94 -56 -4 6 41 108 100 226 l106 215 -67 -9 c-38 -4 -88 -6 -113 -5 -167 11
-203 8 -259 -23 -30 -17 -76 -51 -102 -77 -47 -47 -119 -174 -119 -210 0 -41
-108 -145 -124 -119 -4 5 10 40 30 78 106 196 114 216 114 269 0 45 -4 56 -27
74 -41 32 -136 25 -187 -13 -20 -16 -36 -25 -36 -22 0 4 45 94 101 201 l101
194 -34 -1 c-18 -1 -66 -6 -105 -12z m1675 -456 c-35 -71 -153 -201 -182 -201
-15 0 -15 3 -1 37 36 85 138 227 185 256 24 15 25 15 28 -5 2 -11 -11 -50 -30
-87z m-1147 -69 c-48 -92 -99 -178 -125 -207 -42 -47 -45 -49 -62 -33 -15 14
-15 22 -5 65 37 146 181 331 259 333 8 0 -20 -64 -67 -158z"/>
<path d="M17731 3866 l-74 -11 -86 -167 c-78 -149 -89 -165 -105 -156 -10 6
-50 8 -90 6 -124 -8 -236 -88 -305 -217 -39 -74 -52 -169 -31 -221 32 -77 157
-81 238 -7 19 18 22 18 22 4 0 -63 118 -78 206 -27 51 29 89 70 133 143 38 63
18 51 -37 -23 -54 -72 -105 -110 -118 -88 -4 6 78 179 184 388 106 208 192
380 192 384 0 8 -39 6 -129 -8z m-261 -370 c0 -22 -174 -329 -206 -365 -40
-43 -44 -45 -60 -29 -15 14 -15 22 -5 65 29 114 142 281 213 316 31 16 58 22
58 13z"/>
<path d="M12752 3528 c-71 -10 -74 -11 -99 -52 -50 -78 -136 -268 -140 -310
-5 -38 -2 -45 23 -65 25 -20 38 -22 96 -19 58 3 72 8 109 38 l43 34 -43 -79
c-62 -113 -112 -185 -160 -228 -50 -45 -61 -46 -61 -8 0 44 34 115 80 165 l41
44 -32 11 c-101 35 -212 -14 -239 -106 -11 -36 -10 -46 6 -79 11 -21 35 -49
54 -62 32 -22 43 -23 130 -20 207 8 268 73 509 542 56 109 100 200 97 203 -3
3 -49 -1 -103 -8 l-98 -14 -57 -108 c-65 -123 -112 -191 -164 -237 -25 -22
-40 -28 -47 -21 -7 7 20 69 87 201 l97 190 -28 -1 c-15 -1 -61 -6 -101 -11z"/>
<path d="M13355 3526 c-71 -22 -127 -57 -180 -110 -73 -73 -100 -133 -100
-223 0 -62 3 -75 25 -98 44 -47 76 -58 161 -53 168 10 321 139 365 308 17 63
17 66 -3 111 -27 59 -67 79 -160 78 -37 0 -86 -6 -108 -13z m127 -56 c-12
-118 -176 -400 -233 -400 -27 0 -25 41 6 137 48 152 156 308 207 301 20 -3 23
-8 20 -38z"/>
<path d="M13866 3526 l-80 -11 -88 -175 c-103 -204 -112 -237 -74 -274 21 -22
34 -26 82 -26 68 0 112 20 159 71 l35 39 0 -39 c0 -51 26 -71 93 -71 54 0 110
20 146 53 l24 22 -17 -32 c-9 -18 -16 -34 -16 -38 0 -3 44 -5 98 -5 l97 0 90
177 c90 177 121 225 156 244 38 20 38 -3 0 -80 -52 -103 -60 -142 -32 -170 27
-27 109 -28 168 -2 44 20 113 84 134 123 6 13 -11 0 -39 -28 -47 -48 -92 -74
-92 -53 0 5 19 46 41 92 71 141 54 197 -60 197 -38 0 -66 -6 -89 -20 -41 -25
-45 -25 -32 0 13 24 18 24 -106 8 l-96 -11 -78 -156 c-80 -160 -121 -222 -168
-253 -67 -44 -57 -8 63 226 80 157 102 206 89 206 -9 0 -57 -5 -106 -12 l-90
-12 -50 -100 c-76 -152 -195 -316 -228 -316 -29 0 -4 57 152 348 l49 92 -28
-1 c-15 -1 -64 -7 -107 -13z"/>
<path d="M15332 3527 l-72 -10 -120 -232 c-66 -128 -120 -235 -120 -239 0 -3
44 -6 98 -6 l97 0 64 127 c103 208 186 325 206 293 6 -10 -69 -165 -162 -337
l-45 -83 101 0 101 0 56 113 c97 194 177 317 205 317 21 0 5 -49 -60 -178 -83
-165 -89 -189 -61 -225 19 -23 29 -27 76 -27 68 0 131 29 179 81 l35 39 6 -25
c7 -30 65 -82 100 -91 14 -4 57 -4 94 -2 161 12 313 144 356 308 17 63 17 66
-3 111 -29 65 -70 83 -177 77 -65 -3 -96 -11 -149 -36 -114 -53 -208 -166
-224 -269 -3 -21 -19 -55 -36 -76 -32 -41 -82 -73 -92 -58 -3 5 16 49 41 98
91 171 98 188 102 244 4 51 2 58 -23 77 -20 16 -42 22 -77 22 -56 0 -80 -10
-123 -51 -30 -28 -31 -28 -32 -6 -5 60 -111 78 -190 31 -41 -23 -44 -24 -34
-6 6 12 11 23 11 26 0 8 -37 6 -128 -7z m990 -57 c-12 -118 -176 -400 -233
-400 -27 0 -25 41 6 137 48 152 156 308 207 301 20 -3 23 -8 20 -38z"/>
<path d="M16755 3526 c-71 -22 -127 -57 -180 -110 -73 -73 -100 -133 -100
-223 0 -62 3 -75 25 -98 44 -47 76 -58 161 -53 168 10 321 139 365 308 17 63
17 66 -3 111 -27 59 -67 79 -160 78 -37 0 -86 -6 -108 -13z m127 -56 c-12
-118 -176 -400 -233 -400 -27 0 -25 41 6 137 48 152 156 308 207 301 20 -3 23
-8 20 -38z"/>
</g>
</svg>
